<?xml version="1.0" encoding="utf-8"?>
<!-- Generator: Adobe Illustrator 16.0.0, SVG Export Plug-In . SVG Version: 6.00 Build 0)  -->
<!DOCTYPE svg PUBLIC "-//W3C//DTD SVG 1.1//EN" "http://www.w3.org/Graphics/SVG/1.1/DTD/svg11.dtd">
<svg version="1.1" id="Ebene_1" xmlns="http://www.w3.org/2000/svg" xmlns:xlink="http://www.w3.org/1999/xlink" x="0px" y="0px"
	 width="93.08px" height="73.08px" viewBox="0 0 93.08 73.08" enable-background="new 0 0 93.08 73.08" xml:space="preserve">
<g>
	<defs>
		<rect id="SVGID_1_" width="73.08" height="73.08"/>
	</defs>
	<clipPath id="SVGID_2_">
		<use xlink:href="#SVGID_1_"  overflow="visible"/>
	</clipPath>
	<path clip-path="url(#SVGID_2_)" fill="#FFFFFF" d="M36.079,48.72L16.24,37.186v-8.765l20.3,9.596l20.3-9.596v8.765L37.001,48.72
		H36.079z M50.75,70.22c4.429-1.907,8.305-4.521,11.626-7.843c3.321-3.322,5.938-7.197,7.844-11.627
		c1.906-4.43,2.86-9.166,2.86-14.209c0-5.046-0.954-9.781-2.86-14.21c-1.905-4.431-4.522-8.291-7.844-11.581
		c-3.321-3.291-7.197-5.905-11.626-7.844C46.32,0.969,41.585,0,36.54,0c-5.043,0-9.781,0.969-14.21,2.906
		c-4.429,1.938-8.304,4.553-11.626,7.844c-3.322,3.29-5.936,7.15-7.843,11.581C0.955,26.76,0,31.495,0,36.541
		c0,5.043,0.955,9.779,2.861,14.209c1.907,4.43,4.521,8.305,7.843,11.627c3.322,3.321,7.197,5.936,11.626,7.843
		c4.429,1.906,9.167,2.859,14.21,2.859C41.585,73.079,46.32,72.126,50.75,70.22"/>
</g>
</svg>
