<?xml version="1.0" encoding="utf-8"?>
<!-- Generator: Adobe Illustrator 16.0.0, SVG Export Plug-In . SVG Version: 6.00 Build 0)  -->
<!DOCTYPE svg PUBLIC "-//W3C//DTD SVG 1.1//EN" "http://www.w3.org/Graphics/SVG/1.1/DTD/svg11.dtd">
<svg version="1.1" id="Ebene_1" xmlns="http://www.w3.org/2000/svg" xmlns:xlink="http://www.w3.org/1999/xlink" x="0px" y="0px"
	 width="93.08px" height="73.08px" viewBox="0 0 93.08 73.08" enable-background="new 0 0 93.08 73.08" xml:space="preserve">
<g>
	<defs>
		<rect id="SVGID_1_" width="73.08" height="73.08"/>
	</defs>
	<clipPath id="SVGID_2_">
		<use xlink:href="#SVGID_1_"  overflow="visible"/>
	</clipPath>
	<path clip-path="url(#SVGID_2_)" fill="#FFFFFF" d="M37.001,24.36L56.84,35.895v8.765l-20.3-9.596l-20.3,9.596v-8.765L36.079,24.36
		H37.001z M50.75,2.86c-4.43-1.906-9.165-2.859-14.21-2.859c-5.043,0-9.781,0.953-14.21,2.859
		c-4.429,1.907-8.304,4.521-11.626,7.843C7.382,14.025,4.768,17.9,2.861,22.33C0.955,26.76,0,31.496,0,36.539
		c0,5.046,0.955,9.781,2.861,14.21c1.907,4.431,4.521,8.291,7.843,11.581c3.322,3.291,7.197,5.905,11.626,7.844
		c4.429,1.938,9.167,2.906,14.21,2.906c5.045,0,9.78-0.969,14.21-2.906c4.429-1.938,8.305-4.553,11.626-7.844
		c3.321-3.29,5.938-7.15,7.844-11.581c1.906-4.429,2.86-9.164,2.86-14.21c0-5.043-0.954-9.779-2.86-14.209
		c-1.905-4.43-4.522-8.305-7.844-11.627C59.055,7.382,55.179,4.768,50.75,2.86"/>
</g>
</svg>
