<?xml version="1.0" encoding="utf-8"?>
<!-- Generator: Adobe Illustrator 16.0.0, SVG Export Plug-In . SVG Version: 6.00 Build 0)  -->
<!DOCTYPE svg PUBLIC "-//W3C//DTD SVG 1.1//EN" "http://www.w3.org/Graphics/SVG/1.1/DTD/svg11.dtd">
<svg version="1.1" id="Ebene_1" xmlns="http://www.w3.org/2000/svg" xmlns:xlink="http://www.w3.org/1999/xlink" x="0px" y="0px"
	 width="14px" height="14px" viewBox="0 0 14 14" enable-background="new 0 0 14 14" xml:space="preserve">
<g>
	<defs>
		<rect id="SVGID_1_" width="14" height="14"/>
	</defs>
	<clipPath id="SVGID_2_">
		<use xlink:href="#SVGID_1_"  overflow="visible"/>
	</clipPath>
	<path clip-path="url(#SVGID_2_)" fill="#008EAC" d="M9,7.094V6.906L6.734,3H5l1.891,4L5,11h1.734L9,7.094z M4.664,12.531
		c-0.724-0.313-1.36-0.742-1.907-1.289S1.781,10.06,1.468,9.336C1.156,8.612,1,7.834,1,7c0-0.833,0.156-1.612,0.468-2.336
		C1.781,3.939,2.21,3.305,2.757,2.758S3.94,1.781,4.664,1.469C5.389,1.156,6.166,1,7,1s1.611,0.156,2.336,0.469
		c0.724,0.313,1.359,0.742,1.906,1.289s0.977,1.182,1.289,1.906C12.844,5.388,13,6.167,13,7c0,0.834-0.156,1.612-0.469,2.336
		s-0.742,1.359-1.289,1.906s-1.183,0.977-1.906,1.289C8.611,12.844,7.834,13,7,13S5.389,12.844,4.664,12.531 M4.273,0.547
		c-0.849,0.365-1.591,0.865-2.227,1.5c-0.635,0.635-1.135,1.378-1.5,2.227C0.183,5.123,0,6.031,0,7s0.182,1.878,0.546,2.727
		c0.365,0.85,0.865,1.592,1.5,2.227c0.636,0.636,1.378,1.136,2.227,1.5C5.123,13.818,6.031,14,7,14s1.877-0.182,2.727-0.547
		c0.849-0.364,1.591-0.864,2.227-1.5c0.635-0.635,1.135-1.377,1.5-2.227C13.817,8.878,14,7.969,14,7s-0.183-1.877-0.547-2.727
		c-0.365-0.849-0.865-1.592-1.5-2.227c-0.636-0.635-1.378-1.135-2.227-1.5C8.877,0.182,7.969,0,7,0S5.123,0.182,4.273,0.547"/>
</g>
</svg>
