<?xml version="1.0" encoding="utf-8"?>
<!-- Generator: Adobe Illustrator 16.0.0, SVG Export Plug-In . SVG Version: 6.00 Build 0)  -->
<!DOCTYPE svg PUBLIC "-//W3C//DTD SVG 1.1//EN" "http://www.w3.org/Graphics/SVG/1.1/DTD/svg11.dtd">
<svg version="1.1" id="Ebene_1" xmlns="http://www.w3.org/2000/svg" xmlns:xlink="http://www.w3.org/1999/xlink" x="0px" y="0px"
	 width="135.333px" height="135.333px" viewBox="0 0 135.333 135.333" enable-background="new 0 0 135.333 135.333"
	 xml:space="preserve">
<g>
	<defs>
		<rect id="SVGID_1_" width="135.333" height="135.333"/>
	</defs>
	<clipPath id="SVGID_2_">
		<use xlink:href="#SVGID_1_"  overflow="visible"/>
	</clipPath>
	<path clip-path="url(#SVGID_2_)" fill="#FFFFFF" d="M90.222,66.812L68.863,30.074H52.63l17.771,37.592L52.63,105.259h16.233
		l21.358-36.738V66.812z M130.036,93.981c-3.532,8.201-8.373,15.379-14.524,21.529c-6.151,6.152-13.329,10.995-21.53,14.525
		c-8.202,3.529-16.976,5.297-26.314,5.297c-9.342,0-18.113-1.768-26.315-5.297c-8.201-3.53-15.352-8.373-21.444-14.525
		c-6.095-6.15-10.936-13.328-14.524-21.529C1.794,85.779,0,77.009,0,67.666c0-9.339,1.794-18.113,5.383-26.315
		c3.588-8.202,8.429-15.378,14.524-21.53C26,13.67,33.15,8.829,41.352,5.297C49.554,1.767,58.325,0,67.667,0
		c9.339,0,18.112,1.767,26.314,5.297c8.201,3.532,15.379,8.373,21.53,14.524c6.151,6.152,10.992,13.328,14.524,21.53
		c3.53,8.202,5.297,16.976,5.297,26.315C135.333,77.009,133.566,85.779,130.036,93.981"/>
</g>
</svg>
