<?xml version="1.0" encoding="utf-8"?>
<!-- Generator: Adobe Illustrator 16.0.0, SVG Export Plug-In . SVG Version: 6.00 Build 0)  -->
<!DOCTYPE svg PUBLIC "-//W3C//DTD SVG 1.1//EN" "http://www.w3.org/Graphics/SVG/1.1/DTD/svg11.dtd">
<svg version="1.1" id="Ebene_1" xmlns="http://www.w3.org/2000/svg" xmlns:xlink="http://www.w3.org/1999/xlink" x="0px" y="0px"
	 width="1291.49px" height="1451.221px" viewBox="0 0 1291.49 1451.221" enable-background="new 0 0 1291.49 1451.221"
	 xml:space="preserve">
<g>
	<path fill="#FFFFFF" d="M32.166,472.692h20.372c-1.842-23.207,2.033-46.152,6.757-64.258h-37.44
		C21.617,438.585,26.147,458.928,32.166,472.692 M55.31,491.075H44.018c5.05,5.27,10.058,8.25,13.947,9.789
		C56.922,497.632,56.053,494.364,55.31,491.075 M177.582,65.408h422.522V30.056C563.149,16.077,504.541-0.001,430.501-0.001
		c-55.448,0-111.327,9.149-166.086,27.199C230.694,38.314,202.054,51.159,177.582,65.408 M86.75,147.062h513.354v-65.24H152.01
		C124.244,101.575,103.11,123.547,86.75,147.062 M48.141,228.715h551.964v-65.24h-523.9
		C63.945,184.31,54.941,206.186,48.141,228.715 M31.334,310.368h568.771v-65.241H43.602
		C38.152,266.508,34.355,288.363,31.334,310.368 M75.039,392.022h525.065v-65.241H29.191c-1.524,12.44-2.88,24.899-4.23,37.317
		l-0.836,7.674c-0.784,7.172-1.299,13.848-1.674,20.25h41.694c2.039-6.127,3.941-11.109,5.316-14.48
		c0.394-1.031,0.851-2.115,1.331-3.143l8.354,3.836c-0.021,0.043-0.452,1.012-1.171,2.777
		C76.769,384.18,75.814,387.915,75.039,392.022 M75.238,472.692h524.866v-64.258H73.071
		C71.867,426.868,72.994,449.678,75.238,472.692 M86.954,554.346h513.15v-63.271H77.253
		C80.113,514.807,83.805,537.473,86.954,554.346 M89.085,635.999h511.021v-63.27H90.646c0.565,2.57,1.074,4.738,1.493,6.361
		c1.81,7.01,5.274,24.285-1.655,33.232c-1.958,2.529-4.545,4.111-7.571,4.65c-1.837,2.84-5.503,5.018-11.169,5.018
		c-4.795,0-10.551-1.559-17.044-4.58C66.857,629.946,85.455,635.091,89.085,635.999 M70.936,717.653h529.169v-63.27H94.389
		C93.727,674.284,84.612,696.514,70.936,717.653 M-0.002,799.307h600.107v-63.271H57.721c-11.87,14.953-25.553,28.732-39.488,39.875
		C7.286,784.663,1.195,792.514-0.002,799.307 M26.186,880.956h573.918v-63.268H9.374c1.397,1.258,2.83,2.484,4.23,3.666
		c3.823,3.23,7.126,6.02,9.035,9.154c7.432,12.197,9.615,29.205,9.706,29.922l0.125,1.008L26.186,880.956z M38.73,962.612h561.374
		v-63.271H20.268l-7.722,23.979l27.236,27.395c2.524,0.707,4.171,2.428,4.436,4.746C44.512,958.048,43.562,960.104,38.73,962.612
		 M48.522,1044.264h551.582v-63.27H10.452c0.219,8.727,8.38,22.049,22.269,35.939l2.562,2.543
		C43.956,1028.036,48.32,1033.317,48.522,1044.264 M34.963,1125.919h565.143v-63.271H46.385
		c-1.947,10.063-5.189,23.145-9.798,41.152C34.594,1111.591,34.093,1119.01,34.963,1125.919 M329.736,1207.569h270.368v-63.268
		H41.468c0.496,0.795,0.948,1.609,1.5,2.379c8.68,12.08,23.303,19.725,40.115,20.975c7.65,0.57,23.646,0.859,47.539,0.859
		c62.021,0,157.521-1.967,158.478-1.986l1.758-0.039l1.334,1.148C305.85,1179.368,318.314,1192.928,329.736,1207.569
		 M379.189,1289.225h220.915v-63.271H343.155C356.904,1246.085,368.871,1267.643,379.189,1289.225 M414.205,1378.577h185.899
		v-70.969H387.615C398.566,1332.614,407.342,1357.02,414.205,1378.577 M433.557,1451.221h166.548v-54.262H419.822
		C427.523,1423.302,431.92,1443.266,433.557,1451.221"/>
	<path fill="#FFFFFF" d="M1212.465,954.141c-1.651-13.607,11.873-30.705,33.795-33.824c29.671-4.225,40.939-18.895,45.232-29.449
		H692.697v63.273H1212.465L1212.465,954.141z M1184.074,709.18c-3.705-21.127,3.097-43.824,12.313-63.271h-503.69v63.271H1184.074z
		 M1164.109,1135.829H692.697v63.27h493.934C1182.4,1175.161,1170.677,1149.259,1164.109,1135.829 M1213.201,1004.223
		c6.687-3.299,6.264-18.27,3.775-31.699H692.697v63.268h491.396C1177.536,1026.184,1204.094,1008.718,1213.201,1004.223
		 M1208.476,1064.823c1.451-4.297,0.661-7.707-1.386-10.648H692.697v63.271h469.467
		C1170.795,1099.104,1204.699,1076.009,1208.476,1064.823 M887.391,1237.305c0,0,231.858,26.361,279.089,12.381
		c15.439-4.574,21.198-16.967,21.674-32.205H692.697v63.271h199.936C891.756,1253.296,887.391,1237.305,887.391,1237.305
		 M692.697,1370.104h190.411c6.42-27.037,8.995-51.061,9.558-70.969H692.697V1370.104z M692.697,1448.593l161.57,2.629
		c10.509-22.029,18.271-43.045,23.992-62.732H692.697V1448.593z M692.697,220.242h437.875
		c-110.24-81.614-350.869-57.167-437.875-44.997V220.242z M692.697,301.896h494.195c-3.445-8.841-7.152-17.934-11.474-27.597
		c-6.352-14.199-15.183-26.65-25.916-37.644H692.697V301.896z M692.697,383.55h517.234c-2.859-18.77-8.156-40.307-16.915-65.241
		H692.697V383.55z M1207.994,464.219c3.595-16.918,6.219-37.525,3.891-64.258H692.697v64.258H1207.994z M692.697,545.872h523.187
		c-4.08-30.637-11.063-59.432-12.011-63.27H692.697V545.872z M1212.509,617.313c6.625-10.18,7.254-30.869,5.391-53.057H692.697
		v63.27h513.48C1208.338,623.88,1210.478,620.432,1212.509,617.313 M692.697,790.833h541.26
		c-15.449-22.547-30.323-44.039-39.646-56.979c-1.479-2.051-2.729-4.16-3.895-6.291H692.697V790.833z M692.697,872.483h596.744
		c-7.931-11.748-24.891-36.834-42.921-63.268H692.697V872.483z"/>
</g>
</svg>
