<?xml version="1.0" encoding="utf-8"?>
<!-- Generator: Adobe Illustrator 16.0.0, SVG Export Plug-In . SVG Version: 6.00 Build 0)  -->
<!DOCTYPE svg PUBLIC "-//W3C//DTD SVG 1.1//EN" "http://www.w3.org/Graphics/SVG/1.1/DTD/svg11.dtd">
<svg version="1.1" id="Ebene_1" xmlns="http://www.w3.org/2000/svg" xmlns:xlink="http://www.w3.org/1999/xlink" x="0px" y="0px"
	 width="80px" height="80px" viewBox="0 0 80 80" enable-background="new 0 0 80 80" xml:space="preserve">
<g>
	<defs>
		<rect id="SVGID_1_" width="80" height="80"/>
	</defs>
	<clipPath id="SVGID_2_">
		<use xlink:href="#SVGID_1_"  overflow="visible"/>
	</clipPath>
	<path clip-path="url(#SVGID_2_)" fill="#FFFFFF" d="M40,80c22.091,0,40-17.909,40-40S62.091,0,40,0S0,17.909,0,40S17.909,80,40,80"
		/>
	<path clip-path="url(#SVGID_2_)" fill="#BA0D56" d="M17.689,30.038h0.822c-0.074-0.936,0.082-1.86,0.273-2.591h-1.51
		C17.264,28.663,17.447,29.483,17.689,30.038 M18.623,30.78h-0.456c0.204,0.212,0.406,0.333,0.563,0.396
		C18.688,31.045,18.653,30.912,18.623,30.78 M23.555,13.611h17.042v-1.426c-1.491-0.564-3.855-1.212-6.841-1.212
		c-2.237,0-4.491,0.369-6.699,1.097C25.697,12.519,24.542,13.036,23.555,13.611 M19.891,16.904h20.706v-2.631H22.523
		C21.403,15.07,20.551,15.956,19.891,16.904 M18.334,20.198h22.263v-2.632H19.466C18.971,18.407,18.608,19.289,18.334,20.198
		 M17.656,23.491h22.941V20.86H18.151C17.931,21.723,17.778,22.604,17.656,23.491 M19.419,26.785h21.178v-2.632H17.569
		c-0.061,0.502-0.116,1.004-0.17,1.505l-0.034,0.311c-0.031,0.289-0.052,0.558-0.067,0.816h1.681
		c0.083-0.248,0.159-0.448,0.215-0.584c0.016-0.042,0.034-0.086,0.053-0.127l0.337,0.154c0,0.002-0.018,0.041-0.047,0.113
		C19.488,26.469,19.45,26.619,19.419,26.785 M19.427,30.038h21.17v-2.591H19.339C19.291,28.19,19.336,29.11,19.427,30.038
		 M19.899,33.332h20.698V30.78H19.508C19.623,31.737,19.772,32.651,19.899,33.332 M19.985,36.626h20.612v-2.553H20.048
		c0.023,0.104,0.043,0.191,0.06,0.257c0.073,0.283,0.213,0.979-0.066,1.341c-0.079,0.102-0.184,0.166-0.306,0.188
		c-0.074,0.114-0.222,0.202-0.45,0.202c-0.194,0-0.426-0.063-0.688-0.185C19.089,36.382,19.839,36.589,19.985,36.626 M19.253,39.919
		h21.344v-2.552H20.199C20.172,38.17,19.805,39.066,19.253,39.919 M16.392,43.213h24.205V40.66H18.72
		c-0.479,0.604-1.03,1.159-1.593,1.608C16.686,42.621,16.44,42.938,16.392,43.213 M17.448,46.506h23.149v-2.553H16.77
		c0.057,0.052,0.114,0.101,0.171,0.148c0.154,0.13,0.287,0.243,0.364,0.369c0.3,0.492,0.388,1.178,0.392,1.207l0.005,0.041
		L17.448,46.506z M17.954,49.8h22.643v-2.553H17.21l-0.312,0.968l1.099,1.104c0.101,0.028,0.168,0.099,0.178,0.191
		C18.187,49.615,18.149,49.697,17.954,49.8 M18.349,53.093h22.248V50.54H16.814c0.008,0.353,0.338,0.89,0.898,1.45l0.103,0.103
		C18.165,52.438,18.341,52.65,18.349,53.093 M17.802,56.386h22.795v-2.552H18.263c-0.079,0.405-0.209,0.934-0.395,1.659
		C17.787,55.808,17.767,56.107,17.802,56.386 M29.692,59.68h10.905v-2.552H18.065c0.02,0.031,0.038,0.064,0.06,0.096
		c0.35,0.487,0.94,0.795,1.618,0.846c0.309,0.023,0.954,0.034,1.918,0.034c2.501,0,6.353-0.079,6.391-0.08l0.071-0.001l0.054,0.046
		C28.728,58.541,29.231,59.089,29.692,59.68 M31.686,62.973h8.911v-2.552H30.233C30.787,61.232,31.27,62.103,31.686,62.973
		 M33.098,66.576h7.499v-2.861h-8.571C32.468,64.723,32.822,65.707,33.098,66.576 M33.879,69.507h6.718v-2.188h-7.272
		C33.636,68.381,33.813,69.186,33.879,69.507"/>
	<path clip-path="url(#SVGID_2_)" fill="#009FE1" d="M65.295,49.457c-0.066-0.548,0.479-1.238,1.363-1.364
		c1.197-0.17,1.652-0.762,1.825-1.188H44.331v2.552H65.295z M64.15,39.577c-0.149-0.853,0.125-1.768,0.496-2.553H44.331v2.553H64.15
		z M63.346,56.786H44.331v2.552h19.923C64.083,58.372,63.61,57.327,63.346,56.786 M65.325,51.477
		c0.271-0.133,0.252-0.735,0.151-1.277H44.331v2.552h19.82C63.887,52.363,64.958,51.659,65.325,51.477 M65.135,53.922
		c0.059-0.174,0.026-0.311-0.057-0.43H44.331v2.552h18.935C63.614,55.304,64.982,54.373,65.135,53.922 M52.184,60.879
		c0,0,9.352,1.063,11.257,0.499c0.622-0.185,0.854-0.684,0.875-1.299H44.331v2.552h8.063C52.36,61.523,52.184,60.879,52.184,60.879
		 M44.331,66.235h7.681c0.258-1.092,0.362-2.06,0.385-2.863h-8.065V66.235z M44.331,69.401l6.517,0.105
		c0.424-0.889,0.737-1.737,0.968-2.531h-7.484V69.401z M44.331,19.856h17.661c-4.445-3.292-14.152-2.306-17.661-1.814V19.856z
		 M44.331,23.149h19.933c-0.139-0.356-0.289-0.723-0.463-1.112c-0.256-0.573-0.611-1.075-1.045-1.519H44.331V23.149z M44.331,26.443
		h20.862c-0.115-0.758-0.329-1.625-0.682-2.632H44.331V26.443z M65.115,29.697c0.145-0.683,0.251-1.514,0.156-2.593h-20.94v2.593
		H65.115z M44.331,32.991h21.103c-0.166-1.236-0.446-2.398-0.484-2.553H44.331V32.991z M65.297,35.872
		c0.268-0.411,0.293-1.245,0.217-2.141H44.331v2.553h20.711C65.129,36.137,65.215,35.998,65.297,35.872 M44.331,42.871h21.831
		c-0.623-0.91-1.223-1.777-1.6-2.298c-0.059-0.083-0.109-0.168-0.156-0.254H44.331V42.871z M44.331,46.164H68.4
		c-0.32-0.475-1.004-1.486-1.73-2.552H44.331V46.164z"/>
</g>
</svg>
