<?xml version="1.0" encoding="utf-8"?>
<!-- Generator: Adobe Illustrator 16.0.0, SVG Export Plug-In . SVG Version: 6.00 Build 0)  -->
<!DOCTYPE svg PUBLIC "-//W3C//DTD SVG 1.1//EN" "http://www.w3.org/Graphics/SVG/1.1/DTD/svg11.dtd">
<svg version="1.1" id="Ebene_1" xmlns="http://www.w3.org/2000/svg" xmlns:xlink="http://www.w3.org/1999/xlink" x="0px" y="0px"
	 width="298.5px" height="210px" viewBox="0 0 298.5 210" enable-background="new 0 0 298.5 210" xml:space="preserve">
<path fill="#B80D56" d="M91.279,65.318h1.926c-0.175-2.192,0.191-4.36,0.638-6.071h-3.537
	C90.282,62.096,90.711,64.018,91.279,65.318 M93.467,67.055h-1.067c0.478,0.498,0.95,0.78,1.317,0.925
	C93.618,67.675,93.536,67.366,93.467,67.055 M105.019,26.839h39.919v-3.341c-3.491-1.32-9.029-2.839-16.023-2.839
	c-5.239,0-10.519,0.864-15.691,2.57C110.036,24.279,107.331,25.492,105.019,26.839 M96.437,34.553h48.501v-6.164h-42.335
	C99.979,30.256,97.982,32.331,96.437,34.553 M92.789,42.268h52.148v-6.164H95.44C94.281,38.072,93.432,40.139,92.789,42.268
	 M91.2,49.982h53.737v-6.164H92.359C91.845,45.838,91.486,47.903,91.2,49.982 M95.331,57.697h49.606v-6.164H90.999
	c-0.145,1.175-0.272,2.352-0.4,3.526l-0.079,0.725c-0.074,0.677-0.122,1.308-0.158,1.913h3.939c0.192-0.579,0.373-1.05,0.503-1.368
	c0.037-0.098,0.08-0.2,0.125-0.297l0.79,0.362c-0.002,0.004-0.043,0.096-0.111,0.263C95.493,56.956,95.403,57.309,95.331,57.697
	 M95.349,65.318h49.589v-6.071H95.145C95.03,60.989,95.137,63.144,95.349,65.318 M96.456,73.033h48.481v-5.978H95.54
	C95.81,69.297,96.158,71.438,96.456,73.033 M96.657,80.748h48.28V74.77H96.805c0.054,0.243,0.102,0.447,0.141,0.601
	c0.171,0.662,0.499,2.294-0.155,3.14c-0.186,0.239-0.431,0.388-0.717,0.439c-0.173,0.268-0.519,0.474-1.055,0.474
	c-0.453,0-0.997-0.147-1.61-0.433C94.558,80.176,96.314,80.662,96.657,80.748 M94.942,88.462h49.995v-5.978H97.158
	C97.096,84.365,96.234,86.465,94.942,88.462 M88.24,96.177h56.697v-5.978H93.693c-1.121,1.413-2.414,2.714-3.729,3.767
	C88.929,94.792,88.354,95.535,88.24,96.177 M90.715,103.891h54.223v-5.978H89.127c0.132,0.119,0.267,0.235,0.398,0.347
	c0.361,0.305,0.673,0.568,0.854,0.865c0.702,1.152,0.908,2.759,0.917,2.827l0.012,0.095L90.715,103.891z M91.899,111.605h53.038
	v-5.978H90.155l-0.729,2.265L92,110.48c0.237,0.067,0.394,0.23,0.419,0.449C92.445,111.174,92.356,111.369,91.899,111.605
	 M92.824,119.32h52.113v-5.978h-55.71c0.021,0.823,0.792,2.083,2.104,3.396l0.241,0.239
	C92.394,117.787,92.806,118.285,92.824,119.32 M91.544,127.035h53.394v-5.979H92.623c-0.185,0.95-0.49,2.188-0.926,3.889
	C91.509,125.681,91.462,126.382,91.544,127.035 M119.394,134.748h25.544v-5.977H92.158c0.048,0.075,0.09,0.152,0.142,0.225
	c0.819,1.142,2.202,1.863,3.79,1.981c0.723,0.054,2.234,0.081,4.492,0.081c5.859,0,14.882-0.186,14.973-0.188l0.166-0.004
	l0.126,0.108C117.137,132.084,118.314,133.365,119.394,134.748 M124.065,142.464h20.872v-5.978h-24.276
	C121.961,138.388,123.092,140.425,124.065,142.464 M127.375,150.905h17.563v-6.704h-20.075
	C125.896,146.563,126.726,148.869,127.375,150.905 M129.202,157.769h15.735v-5.126h-17.033
	C128.633,155.131,129.048,157.018,129.202,157.769"/>
<path fill="#009FE3" d="M202.793,110.805c-0.156-1.285,1.122-2.9,3.193-3.195c2.803-0.399,3.867-1.785,4.273-2.782h-56.574v5.978
	H202.793z M200.111,87.661c-0.351-1.996,0.292-4.14,1.163-5.978h-47.589v5.978H200.111z M198.225,127.971h-44.539v5.978h46.666
	C199.953,131.688,198.845,129.239,198.225,127.971 M202.863,115.537c0.631-0.313,0.592-1.727,0.356-2.995h-49.534v5.978h46.428
	C199.493,117.611,202.002,115.961,202.863,115.537 M202.416,121.262c0.137-0.406,0.063-0.728-0.131-1.006h-48.6v5.979h44.355
	C198.856,124.501,202.06,122.319,202.416,121.262 M172.081,137.559c0,0,21.905,2.49,26.368,1.17
	c1.458-0.433,2.002-1.604,2.047-3.043h-46.811v5.978h18.891C172.493,139.069,172.081,137.559,172.081,137.559 M153.686,150.105
	h17.99c0.606-2.555,0.851-4.824,0.903-6.705h-18.894V150.105z M153.686,157.521l15.266,0.249c0.993-2.082,1.726-4.067,2.267-5.928
	h-17.532V157.521z M153.686,41.467h41.37c-10.415-7.711-33.149-5.401-41.37-4.251V41.467z M153.686,49.181h46.691
	c-0.325-0.835-0.676-1.694-1.084-2.607c-0.6-1.342-1.434-2.518-2.448-3.557h-43.159V49.181z M153.686,56.896h48.868
	c-0.27-1.773-0.771-3.808-1.598-6.164h-47.271V56.896z M202.371,64.518c0.339-1.599,0.587-3.546,0.367-6.071h-49.053v6.071H202.371z
	 M153.686,72.232h49.431c-0.385-2.895-1.045-5.615-1.135-5.978h-48.296V72.232z M202.797,78.982c0.626-0.962,0.687-2.917,0.51-5.013
	h-49.621v5.978h48.514C202.403,79.602,202.606,79.276,202.797,78.982 M153.686,95.376h51.139c-1.46-2.131-2.865-4.161-3.746-5.384
	c-0.14-0.193-0.258-0.393-0.368-0.594h-47.024V95.376z M153.686,103.09h56.381c-0.749-1.11-2.353-3.48-4.056-5.977h-52.325V103.09z"
	/>
<path d="M111.651,182.131h-3.965v7.114h3.965v-0.74h-3.138v-2.618h2.948v-0.73h-2.948v-2.292h3.138V182.131z M100.247,170.906h2.252
	v-0.734h-5.333v0.734h2.253v6.38h0.828V170.906z M103.34,182.131h-0.826v7.114h3.966v-0.75h-3.14V182.131z M106.898,174.278h-2.301
	l0.837-2.205c0.133-0.371,0.234-0.715,0.306-1.025c0.114,0.405,0.224,0.748,0.331,1.025L106.898,174.278z M108.042,177.286h0.856
	l-2.798-7.144h-0.695l-2.813,7.144h0.837l0.876-2.264h2.851L108.042,177.286z M114.275,177.291c0.39-0.063,0.771-0.153,1.148-0.273
	v-3.459h-2.419v0.739h1.592v2.189c-0.471,0.114-0.952,0.17-1.445,0.17c-0.908,0-1.597-0.247-2.065-0.743
	c-0.469-0.497-0.704-1.226-0.704-2.186c0-0.915,0.244-1.63,0.73-2.146c0.487-0.517,1.163-0.774,2.029-0.774
	c0.594,0,1.212,0.137,1.854,0.409l0.322-0.73c-0.656-0.278-1.363-0.418-2.122-0.418c-0.749,0-1.403,0.147-1.961,0.44
	c-0.558,0.294-0.985,0.719-1.282,1.275c-0.297,0.556-0.445,1.203-0.445,1.943c0,1.155,0.301,2.053,0.9,2.693
	s1.438,0.961,2.516,0.961C113.436,177.383,113.887,177.352,114.275,177.291 M116.826,186.188c0.297,0.207,0.446,0.532,0.446,0.974
	c0,0.474-0.146,0.821-0.437,1.044c-0.29,0.222-0.723,0.333-1.297,0.333h-1.483v-2.662h1.416
	C116.078,185.877,116.529,185.98,116.826,186.188 M115.418,185.177h-1.362v-2.331h1.217c0.622,0,1.077,0.088,1.362,0.265
	c0.285,0.178,0.428,0.466,0.428,0.864c0,0.436-0.128,0.744-0.384,0.927C116.422,185.085,116.001,185.177,115.418,185.177
	 M116.537,185.517v-0.048c0.451-0.081,0.794-0.259,1.029-0.533c0.235-0.273,0.353-0.622,0.353-1.044c0-0.61-0.211-1.056-0.633-1.338
	s-1.104-0.423-2.048-0.423h-2.01v7.114h2.481c0.772,0,1.373-0.18,1.803-0.536s0.645-0.854,0.645-1.489
	C118.157,186.27,117.617,185.702,116.537,185.517 M123.651,182.131h-3.966v7.114h3.966v-0.74h-3.139v-2.618h2.948v-0.73h-2.948
	v-2.292h3.139V182.131z M124.523,173.689c0,0.951-0.248,1.668-0.744,2.153c-0.497,0.485-1.238,0.728-2.224,0.728h-1.009v-5.684
	h1.202c0.918,0,1.61,0.235,2.076,0.706C124.29,172.063,124.523,172.762,124.523,173.689 M124.443,176.354
	c0.637-0.621,0.956-1.519,0.956-2.692c0-1.101-0.307-1.956-0.92-2.569c-0.613-0.614-1.474-0.92-2.579-0.92h-2.18v7.114h1.971
	C122.889,177.286,123.806,176.975,124.443,176.354 M130.04,188.077l-3.878-5.946h-0.935v7.114h0.764v-4.044
	c0-0.584-0.026-1.227-0.077-1.928h0.038l3.888,5.972h0.944v-7.114h-0.772v4.082c-0.008,0.205,0.001,0.544,0.023,1.02
	c0.023,0.476,0.037,0.756,0.044,0.845H130.04z M126.936,177.286h3.966v-0.74h-3.138v-2.617h2.947v-0.73h-2.947v-2.292h3.138v-0.734
	h-3.966V177.286z M133.232,188.51c-0.344-0.071-0.662-0.169-0.954-0.292v0.798c0.454,0.217,1.103,0.326,1.947,0.326
	c0.777,0,1.395-0.175,1.849-0.526c0.454-0.35,0.681-0.838,0.681-1.464c0-0.487-0.14-0.883-0.421-1.188
	c-0.28-0.305-0.794-0.591-1.54-0.856c-0.444-0.159-0.774-0.304-0.989-0.435c-0.217-0.133-0.369-0.276-0.46-0.434
	c-0.092-0.158-0.137-0.359-0.137-0.605c0-0.334,0.123-0.597,0.37-0.784c0.246-0.188,0.588-0.282,1.026-0.282
	c0.555,0,1.126,0.123,1.713,0.37l0.258-0.72c-0.594-0.261-1.244-0.391-1.951-0.391c-0.678,0-1.223,0.163-1.635,0.487
	s-0.618,0.761-0.618,1.309c0,0.522,0.143,0.946,0.425,1.271c0.284,0.324,0.758,0.604,1.419,0.842
	c0.475,0.169,0.826,0.319,1.059,0.452c0.231,0.133,0.397,0.279,0.497,0.436c0.099,0.157,0.147,0.359,0.147,0.606
	c0,0.373-0.139,0.664-0.418,0.873c-0.278,0.209-0.694,0.314-1.246,0.314C133.916,188.617,133.576,188.581,133.232,188.51
	 M134.289,173.617h-1.134v-2.721h1.076c0.613,0,1.058,0.104,1.336,0.312c0.277,0.208,0.416,0.547,0.416,1.017
	c0,0.464-0.137,0.813-0.409,1.044C135.302,173.501,134.873,173.617,134.289,173.617 M137.34,177.286l-1.932-3.197
	c0.954-0.331,1.431-0.967,1.431-1.907c0-0.672-0.208-1.175-0.625-1.509s-1.062-0.501-1.934-0.501h-1.952v7.114h0.827v-2.959h1.485
	l1.722,2.959H137.34z M142.076,182.131h-3.966v7.114h3.966v-0.74h-3.139v-2.618h2.949v-0.73h-2.949v-2.292h3.139V182.131z
	 M145.715,176.687c0.489-0.463,0.734-1.101,0.734-1.912v-4.603h-0.827v4.632c0,0.597-0.162,1.055-0.485,1.375
	c-0.325,0.32-0.787,0.479-1.388,0.479c-0.63,0-1.106-0.158-1.431-0.477c-0.324-0.317-0.486-0.773-0.486-1.367v-4.642h-0.828v4.584
	c0,0.816,0.235,1.46,0.703,1.927c0.47,0.467,1.132,0.7,1.988,0.7C144.553,177.383,145.226,177.15,145.715,176.687 M147.308,184.184
	c0,0.464-0.137,0.813-0.409,1.044c-0.272,0.232-0.7,0.349-1.284,0.349h-1.134v-2.721h1.075c0.612,0,1.059,0.104,1.336,0.312
	C147.168,183.375,147.308,183.714,147.308,184.184 M148.163,184.14c0-0.671-0.208-1.174-0.625-1.508s-1.061-0.501-1.934-0.501
	h-1.951v7.114h0.827v-2.959h1.483l1.724,2.959h0.978l-1.932-3.197C147.688,185.717,148.163,185.081,148.163,184.14 M152.946,177.286
	h0.944v-7.114h-0.774v4.083c-0.007,0.204,0.001,0.544,0.024,1.019c0.022,0.476,0.037,0.757,0.044,0.845h-0.039l-3.878-5.946h-0.935
	v7.114h0.765v-4.044c0-0.585-0.026-1.227-0.078-1.928h0.039L152.946,177.286z M155.579,188.198c-0.106-0.633-0.238-1.2-0.394-1.703
	l-1.338-4.364h-0.876l-1.275,4.325c-0.172,0.567-0.302,1.148-0.389,1.742c-0.072-0.5-0.186-1.058-0.342-1.674l-1.124-4.394h-0.876
	l1.894,7.114h0.818l1.391-4.735c0.156-0.509,0.27-0.979,0.341-1.406c0.003,0.065,0.047,0.258,0.131,0.579
	c0.085,0.321,0.161,0.587,0.229,0.798l1.436,4.765h0.817l1.903-7.114h-0.877l-1.118,4.384
	C155.758,187.177,155.642,187.737,155.579,188.198 M160.244,177.291c0.391-0.063,0.772-0.153,1.149-0.273v-3.459h-2.419v0.739h1.592
	v2.189c-0.471,0.114-0.952,0.17-1.446,0.17c-0.908,0-1.596-0.247-2.064-0.743c-0.47-0.497-0.703-1.226-0.703-2.186
	c0-0.915,0.243-1.63,0.729-2.146c0.486-0.517,1.163-0.774,2.029-0.774c0.593,0,1.211,0.137,1.854,0.409l0.321-0.73
	c-0.655-0.278-1.363-0.418-2.122-0.418c-0.749,0-1.402,0.147-1.961,0.44c-0.558,0.294-0.984,0.719-1.282,1.275
	c-0.297,0.556-0.444,1.203-0.444,1.943c0,1.155,0.3,2.053,0.899,2.693c0.601,0.641,1.439,0.961,2.517,0.961
	C159.404,177.383,159.855,177.352,160.244,177.291 M162.309,186.237h-2.303l0.838-2.205c0.133-0.372,0.234-0.715,0.306-1.026
	c0.114,0.406,0.224,0.748,0.331,1.026L162.309,186.237z M164.308,189.245l-2.798-7.145h-0.695l-2.813,7.145h0.837l0.876-2.264h2.852
	l0.886,2.264H164.308z M163.102,177.286h3.966v-0.749h-3.139v-6.365h-0.827V177.286z M168.94,184.184
	c0,0.464-0.136,0.813-0.409,1.044c-0.271,0.232-0.701,0.349-1.285,0.349h-1.133v-2.721h1.075c0.613,0,1.058,0.104,1.336,0.312
	C168.802,183.375,168.94,183.714,168.94,184.184 M169.171,182.632c-0.417-0.334-1.062-0.501-1.934-0.501h-1.952v7.114h0.828v-2.959
	h1.484l1.722,2.959h0.978l-1.931-3.197c0.953-0.331,1.43-0.967,1.43-1.908C169.796,183.469,169.588,182.966,169.171,182.632
	 M168.273,177.286h3.966v-0.74h-3.138v-2.617h2.947v-0.73h-2.947v-2.292h3.138v-0.734h-3.966V177.286z M173.816,177.286h0.827
	v-7.114h-0.827V177.286z M173.637,182.864h2.252v-0.733h-5.333v0.733h2.253v6.381h0.828V182.864z M181.256,171.188l0.351-0.711
	c-0.559-0.271-1.21-0.408-1.956-0.408c-0.701,0-1.311,0.149-1.827,0.447c-0.518,0.299-0.913,0.724-1.187,1.275
	c-0.275,0.552-0.412,1.193-0.412,1.927c0,1.171,0.285,2.075,0.854,2.711c0.57,0.635,1.378,0.953,2.426,0.953
	c0.725,0,1.332-0.092,1.825-0.277v-0.725c-0.636,0.178-1.202,0.268-1.698,0.268c-0.808,0-1.43-0.254-1.865-0.762
	c-0.438-0.508-0.655-1.227-0.655-2.158c0-0.905,0.226-1.618,0.679-2.139c0.452-0.521,1.07-0.781,1.852-0.781
	C180.18,170.809,180.717,170.936,181.256,171.188 M181.597,188.646c0.489-0.464,0.734-1.101,0.734-1.912v-4.603h-0.827v4.632
	c0,0.597-0.162,1.055-0.486,1.375c-0.324,0.319-0.786,0.479-1.388,0.479c-0.629,0-1.105-0.159-1.43-0.478
	c-0.325-0.318-0.487-0.774-0.487-1.367v-4.642h-0.826v4.583c0,0.817,0.233,1.46,0.702,1.927c0.47,0.467,1.132,0.701,1.988,0.701
	S181.106,189.109,181.597,188.646 M187.455,177.286h0.827v-7.114h-0.827v3.026h-3.747v-3.026h-0.827v7.114h0.827v-3.349h3.747
	V177.286z M188.737,189.245h0.944v-7.114h-0.773v4.082c-0.007,0.205,0.001,0.544,0.024,1.02c0.022,0.476,0.037,0.756,0.044,0.845
	h-0.039l-3.878-5.946h-0.935v7.114h0.764v-4.044c0-0.584-0.026-1.227-0.077-1.928h0.039L188.737,189.245z M190.234,177.286h3.965
	v-0.74h-3.138v-2.617h2.949v-0.73h-2.949v-2.292h3.138v-0.734h-3.965V177.286z M197.019,182.446
	c-0.655-0.278-1.362-0.419-2.122-0.419c-0.749,0-1.403,0.147-1.961,0.441c-0.559,0.293-0.985,0.718-1.282,1.275
	c-0.297,0.556-0.445,1.203-0.445,1.943c0,1.155,0.3,2.052,0.9,2.693c0.6,0.641,1.438,0.961,2.516,0.961
	c0.513,0,0.963-0.031,1.354-0.092c0.389-0.063,0.771-0.153,1.147-0.273v-3.46h-2.418v0.74h1.591v2.189
	c-0.471,0.113-0.951,0.171-1.444,0.171c-0.909,0-1.598-0.248-2.066-0.745c-0.469-0.496-0.703-1.225-0.703-2.185
	c0-0.915,0.243-1.63,0.73-2.146c0.486-0.517,1.163-0.774,2.029-0.774c0.594,0,1.212,0.136,1.854,0.409L197.019,182.446z
	 M201.333,177.286v-7.114h-0.773v4.083c-0.006,0.204,0.002,0.544,0.024,1.019c0.022,0.476,0.037,0.757,0.043,0.845h-0.038
	l-3.879-5.946h-0.934v7.114h0.764v-4.044c0-0.585-0.025-1.227-0.078-1.928h0.039l3.889,5.972H201.333z"/>
<rect fill="none" width="298.5" height="210"/>
</svg>
