<?xml version="1.0" encoding="utf-8"?>
<!-- Generator: Adobe Illustrator 16.0.0, SVG Export Plug-In . SVG Version: 6.00 Build 0)  -->
<!DOCTYPE svg PUBLIC "-//W3C//DTD SVG 1.1//EN" "http://www.w3.org/Graphics/SVG/1.1/DTD/svg11.dtd">
<svg version="1.1" id="Ebene_1" xmlns="http://www.w3.org/2000/svg" xmlns:xlink="http://www.w3.org/1999/xlink" x="0px" y="0px"
	 width="122.02px" height="168.683px" viewBox="0 0 122.02 168.683" enable-background="new 0 0 122.02 168.683"
	 xml:space="preserve">
<g>
	<path fill="#B80D56" d="M3.039,44.659h1.926c-0.175-2.192,0.191-4.36,0.638-6.071H2.065C2.042,41.437,2.471,43.359,3.039,44.659
		 M5.227,46.396H4.159c0.478,0.498,0.95,0.78,1.317,0.925C5.378,47.016,5.296,46.707,5.227,46.396 M16.778,6.18h39.919V2.839
		C53.206,1.519,47.668,0,40.674,0c-5.239,0-10.519,0.864-15.691,2.57C21.796,3.62,19.091,4.833,16.778,6.18 M8.196,13.894h48.501
		V7.73H14.362C11.738,9.597,9.742,11.672,8.196,13.894 M4.549,21.609h52.148v-6.164H7.2C6.041,17.413,5.191,19.48,4.549,21.609
		 M2.96,29.323h53.737v-6.164H4.119C3.604,25.179,3.246,27.244,2.96,29.323 M7.091,37.038h49.606v-6.164H2.759
		c-0.145,1.175-0.272,2.352-0.4,3.526l-0.079,0.725c-0.074,0.677-0.122,1.308-0.158,1.913h3.939c0.192-0.579,0.373-1.05,0.503-1.368
		c0.037-0.098,0.08-0.2,0.125-0.297l0.79,0.362c-0.002,0.004-0.043,0.096-0.111,0.263C7.253,36.297,7.163,36.65,7.091,37.038
		 M7.108,44.659h49.589v-6.071H6.904C6.79,40.33,6.896,42.485,7.108,44.659 M8.216,52.374h48.481v-5.978H7.3
		C7.569,48.638,7.918,50.78,8.216,52.374 M8.417,60.089h48.28v-5.978H8.564c0.054,0.243,0.102,0.447,0.141,0.601
		c0.171,0.662,0.499,2.294-0.155,3.14c-0.186,0.239-0.431,0.388-0.717,0.439c-0.173,0.268-0.519,0.474-1.055,0.474
		c-0.453,0-0.997-0.147-1.61-0.433C6.317,59.517,8.074,60.003,8.417,60.089 M6.702,67.803h49.995v-5.978H8.918
		C8.855,63.706,7.994,65.806,6.702,67.803 M0,75.518h56.697V69.54H5.453c-1.121,1.413-2.414,2.714-3.729,3.767
		C0.688,74.134,0.113,74.876,0,75.518 M2.475,83.232h54.223v-5.978H0.887c0.132,0.119,0.267,0.235,0.398,0.347
		c0.361,0.305,0.673,0.568,0.854,0.865c0.702,1.152,0.908,2.759,0.917,2.827l0.012,0.095L2.475,83.232z M3.659,90.947h53.038v-5.978
		H1.915l-0.729,2.265l2.574,2.588c0.237,0.067,0.394,0.23,0.419,0.449C4.205,90.515,4.116,90.71,3.659,90.947 M4.584,98.662h52.113
		v-5.978H0.987c0.021,0.823,0.792,2.083,2.104,3.396l0.241,0.239C4.153,97.128,4.565,97.626,4.584,98.662 M3.304,106.376h53.394
		v-5.979H4.383c-0.185,0.95-0.49,2.188-0.926,3.889C3.269,105.022,3.222,105.723,3.304,106.376 M31.153,114.089h25.544v-5.977H3.918
		c0.048,0.075,0.09,0.152,0.142,0.225c0.819,1.142,2.202,1.863,3.79,1.981c0.723,0.054,2.234,0.081,4.492,0.081
		c5.859,0,14.882-0.186,14.973-0.188l0.166-0.004l0.126,0.108C28.896,111.425,30.074,112.707,31.153,114.089 M35.825,121.805h20.872
		v-5.978H32.421C33.721,117.729,34.852,119.766,35.825,121.805 M39.135,130.247h17.563v-6.704H36.622
		C37.656,125.904,38.485,128.21,39.135,130.247 M40.962,137.11h15.735v-5.126H39.664C40.393,134.472,40.808,136.359,40.962,137.11"
		/>
	<path fill="#009FE3" d="M114.553,90.146c-0.156-1.285,1.122-2.9,3.193-3.195c2.803-0.399,3.867-1.785,4.273-2.782H65.445v5.978
		H114.553z M111.871,67.002c-0.351-1.996,0.292-4.14,1.163-5.978H65.445v5.978H111.871z M109.984,107.312H65.445v5.978h46.666
		C111.713,111.029,110.604,108.581,109.984,107.312 M114.623,94.878c0.631-0.313,0.592-1.727,0.356-2.995H65.445v5.978h46.428
		C111.253,96.953,113.762,95.302,114.623,94.878 M114.176,100.603c0.137-0.406,0.063-0.728-0.131-1.006h-48.6v5.979h44.355
		C110.616,103.842,113.819,101.661,114.176,100.603 M83.841,116.9c0,0,21.905,2.49,26.368,1.17c1.458-0.433,2.002-1.604,2.047-3.043
		H65.445v5.978h18.891C84.253,118.411,83.841,116.9,83.841,116.9 M65.445,129.447h17.99c0.606-2.555,0.851-4.824,0.903-6.705H65.445
		V129.447z M65.445,136.862l15.266,0.249c0.993-2.082,1.726-4.067,2.267-5.928H65.445V136.862z M65.445,20.809h41.37
		c-10.415-7.711-33.149-5.401-41.37-4.251V20.809z M65.445,28.522h46.691c-0.325-0.835-0.676-1.694-1.084-2.607
		c-0.6-1.342-1.434-2.518-2.448-3.557H65.445V28.522z M65.445,36.237h48.868c-0.27-1.773-0.771-3.808-1.598-6.164H65.445V36.237z
		 M114.131,43.859c0.339-1.599,0.587-3.546,0.367-6.071H65.445v6.071H114.131z M65.445,51.573h49.431
		c-0.385-2.895-1.045-5.615-1.135-5.978H65.445V51.573z M114.557,58.323c0.626-0.962,0.687-2.917,0.51-5.013H65.445v5.978h48.514
		C114.163,58.943,114.366,58.617,114.557,58.323 M65.445,74.717h51.139c-1.46-2.131-2.865-4.161-3.746-5.384
		c-0.14-0.193-0.258-0.393-0.368-0.594H65.445V74.717z M65.445,82.432h56.381c-0.749-1.11-2.353-3.48-4.056-5.977H65.445V82.432z"/>
	<path d="M23.411,161.472h-3.965v7.114h3.965v-0.74h-3.138v-2.618h2.948v-0.73h-2.948v-2.292h3.138V161.472z M12.007,150.248h2.252
		v-0.734H8.926v0.734h2.253v6.38h0.828V150.248z M15.1,161.472h-0.826v7.114h3.966v-0.75H15.1V161.472z M18.658,153.62h-2.301
		l0.837-2.205c0.133-0.371,0.234-0.715,0.306-1.025c0.114,0.405,0.224,0.748,0.331,1.025L18.658,153.62z M19.802,156.627h0.856
		l-2.798-7.144h-0.695l-2.813,7.144h0.837l0.876-2.264h2.851L19.802,156.627z M26.035,156.632c0.39-0.063,0.771-0.153,1.148-0.273
		V152.9h-2.419v0.739h1.592v2.189c-0.471,0.114-0.952,0.17-1.445,0.17c-0.908,0-1.597-0.247-2.065-0.743
		c-0.469-0.497-0.704-1.226-0.704-2.186c0-0.915,0.244-1.63,0.73-2.146c0.487-0.517,1.163-0.774,2.029-0.774
		c0.594,0,1.212,0.137,1.854,0.409l0.322-0.73c-0.656-0.278-1.363-0.418-2.122-0.418c-0.749,0-1.403,0.147-1.961,0.44
		c-0.558,0.294-0.985,0.719-1.282,1.275c-0.297,0.556-0.445,1.203-0.445,1.943c0,1.155,0.301,2.053,0.9,2.693
		s1.438,0.961,2.516,0.961C25.195,156.724,25.646,156.693,26.035,156.632 M28.586,165.53c0.297,0.207,0.446,0.532,0.446,0.974
		c0,0.474-0.146,0.821-0.437,1.044c-0.29,0.222-0.723,0.333-1.297,0.333h-1.483v-2.662h1.416
		C27.838,165.218,28.289,165.322,28.586,165.53 M27.178,164.518h-1.362v-2.331h1.217c0.622,0,1.077,0.088,1.362,0.265
		c0.285,0.178,0.428,0.466,0.428,0.864c0,0.436-0.128,0.744-0.384,0.927C28.182,164.426,27.761,164.518,27.178,164.518
		 M28.297,164.858v-0.048c0.451-0.081,0.794-0.259,1.029-0.533c0.235-0.273,0.353-0.622,0.353-1.044c0-0.61-0.211-1.056-0.633-1.338
		s-1.104-0.423-2.048-0.423h-2.01v7.114h2.481c0.772,0,1.373-0.18,1.803-0.536s0.645-0.854,0.645-1.489
		C29.917,165.611,29.377,165.043,28.297,164.858 M35.411,161.472h-3.966v7.114h3.966v-0.74h-3.139v-2.618h2.948v-0.73h-2.948v-2.292
		h3.139V161.472z M36.283,153.031c0,0.951-0.248,1.668-0.744,2.153c-0.497,0.485-1.238,0.728-2.224,0.728h-1.009v-5.684h1.202
		c0.918,0,1.61,0.235,2.076,0.706C36.05,151.404,36.283,152.103,36.283,153.031 M36.203,155.695
		c0.637-0.621,0.956-1.519,0.956-2.692c0-1.101-0.307-1.956-0.92-2.569c-0.613-0.614-1.474-0.92-2.579-0.92h-2.18v7.114h1.971
		C34.648,156.627,35.565,156.316,36.203,155.695 M41.8,167.418l-3.878-5.946h-0.935v7.114h0.764v-4.044
		c0-0.584-0.026-1.227-0.077-1.928h0.038l3.888,5.972h0.944v-7.114h-0.772v4.082c-0.008,0.205,0.001,0.544,0.023,1.02
		c0.023,0.476,0.037,0.756,0.044,0.845H41.8z M38.695,156.627h3.966v-0.74h-3.138v-2.617h2.947v-0.73h-2.947v-2.292h3.138v-0.734
		h-3.966V156.627z M44.992,167.851c-0.344-0.071-0.662-0.169-0.954-0.292v0.798c0.454,0.217,1.103,0.326,1.947,0.326
		c0.777,0,1.395-0.175,1.849-0.526c0.454-0.35,0.681-0.838,0.681-1.464c0-0.487-0.14-0.883-0.421-1.188
		c-0.28-0.305-0.794-0.591-1.54-0.856c-0.444-0.159-0.774-0.304-0.989-0.435c-0.217-0.133-0.369-0.276-0.46-0.434
		c-0.092-0.158-0.137-0.359-0.137-0.605c0-0.334,0.123-0.597,0.37-0.784c0.246-0.188,0.588-0.282,1.026-0.282
		c0.555,0,1.126,0.123,1.713,0.37l0.258-0.72c-0.594-0.261-1.244-0.391-1.951-0.391c-0.678,0-1.223,0.163-1.635,0.487
		s-0.618,0.761-0.618,1.309c0,0.522,0.143,0.946,0.425,1.271c0.284,0.324,0.758,0.604,1.419,0.842
		c0.475,0.169,0.826,0.319,1.059,0.452c0.231,0.133,0.397,0.279,0.497,0.436c0.099,0.157,0.147,0.359,0.147,0.606
		c0,0.373-0.139,0.664-0.418,0.873c-0.278,0.209-0.694,0.314-1.246,0.314C45.676,167.958,45.336,167.922,44.992,167.851
		 M46.049,152.958h-1.134v-2.721h1.076c0.613,0,1.058,0.104,1.336,0.312c0.277,0.208,0.416,0.547,0.416,1.017
		c0,0.464-0.137,0.813-0.409,1.044C47.062,152.842,46.633,152.958,46.049,152.958 M49.1,156.627l-1.932-3.197
		c0.954-0.331,1.431-0.967,1.431-1.907c0-0.672-0.208-1.175-0.625-1.509s-1.062-0.501-1.934-0.501h-1.952v7.114h0.827v-2.959H46.4
		l1.722,2.959H49.1z M53.836,161.472H49.87v7.114h3.966v-0.74h-3.139v-2.618h2.949v-0.73h-2.949v-2.292h3.139V161.472z
		 M57.475,156.028c0.489-0.463,0.734-1.101,0.734-1.912v-4.603h-0.827v4.632c0,0.597-0.162,1.055-0.485,1.375
		c-0.325,0.32-0.787,0.479-1.388,0.479c-0.63,0-1.106-0.158-1.431-0.477c-0.324-0.317-0.486-0.773-0.486-1.367v-4.642h-0.828v4.584
		c0,0.816,0.235,1.46,0.703,1.927c0.47,0.467,1.132,0.7,1.988,0.7C56.313,156.724,56.985,156.492,57.475,156.028 M59.067,163.525
		c0,0.464-0.137,0.813-0.409,1.044c-0.272,0.232-0.7,0.349-1.284,0.349H56.24v-2.721h1.075c0.612,0,1.059,0.104,1.336,0.312
		C58.928,162.716,59.067,163.055,59.067,163.525 M59.923,163.481c0-0.671-0.208-1.174-0.625-1.508s-1.061-0.501-1.934-0.501h-1.951
		v7.114h0.827v-2.959h1.483l1.724,2.959h0.978l-1.932-3.197C59.447,165.058,59.923,164.422,59.923,163.481 M64.706,156.627h0.944
		v-7.114h-0.774v4.083c-0.007,0.204,0.001,0.544,0.024,1.019c0.022,0.476,0.037,0.757,0.044,0.845h-0.039l-3.878-5.946h-0.935v7.114
		h0.765v-4.044c0-0.585-0.026-1.227-0.078-1.928h0.039L64.706,156.627z M67.339,167.54c-0.106-0.633-0.238-1.2-0.394-1.703
		l-1.338-4.364h-0.876l-1.275,4.325c-0.172,0.567-0.302,1.148-0.389,1.742c-0.072-0.5-0.186-1.058-0.342-1.674l-1.124-4.394h-0.876
		l1.894,7.114h0.818l1.391-4.735c0.156-0.509,0.27-0.979,0.341-1.406c0.003,0.065,0.047,0.258,0.131,0.579
		c0.085,0.321,0.161,0.587,0.229,0.798l1.436,4.765h0.817l1.903-7.114h-0.877l-1.118,4.384
		C67.518,166.518,67.401,167.079,67.339,167.54 M72.004,156.632c0.391-0.063,0.772-0.153,1.149-0.273V152.9h-2.419v0.739h1.592
		v2.189c-0.471,0.114-0.952,0.17-1.446,0.17c-0.908,0-1.596-0.247-2.064-0.743c-0.47-0.497-0.703-1.226-0.703-2.186
		c0-0.915,0.243-1.63,0.729-2.146c0.486-0.517,1.163-0.774,2.029-0.774c0.593,0,1.211,0.137,1.854,0.409l0.321-0.73
		c-0.655-0.278-1.363-0.418-2.122-0.418c-0.749,0-1.402,0.147-1.961,0.44c-0.558,0.294-0.984,0.719-1.282,1.275
		c-0.297,0.556-0.444,1.203-0.444,1.943c0,1.155,0.3,2.053,0.899,2.693c0.601,0.641,1.439,0.961,2.517,0.961
		C71.164,156.724,71.615,156.693,72.004,156.632 M74.068,165.579h-2.303l0.838-2.205c0.133-0.372,0.234-0.715,0.306-1.026
		c0.114,0.406,0.224,0.748,0.331,1.026L74.068,165.579z M76.067,168.586l-2.798-7.145h-0.695l-2.813,7.145h0.837l0.876-2.264h2.852
		l0.886,2.264H76.067z M74.861,156.627h3.966v-0.749h-3.139v-6.365h-0.827V156.627z M80.7,163.525c0,0.464-0.136,0.813-0.409,1.044
		c-0.271,0.232-0.701,0.349-1.285,0.349h-1.133v-2.721h1.075c0.613,0,1.058,0.104,1.336,0.312
		C80.562,162.716,80.7,163.055,80.7,163.525 M80.931,161.973c-0.417-0.334-1.062-0.501-1.934-0.501h-1.952v7.114h0.828v-2.959h1.484
		l1.722,2.959h0.978l-1.931-3.197c0.953-0.331,1.43-0.967,1.43-1.908C81.556,162.81,81.348,162.307,80.931,161.973 M80.033,156.627
		h3.966v-0.74h-3.138v-2.617h2.947v-0.73h-2.947v-2.292h3.138v-0.734h-3.966V156.627z M85.576,156.627h0.827v-7.114h-0.827V156.627z
		 M85.396,162.206h2.252v-0.733h-5.333v0.733h2.253v6.381h0.828V162.206z M93.016,150.53l0.351-0.711
		c-0.559-0.271-1.21-0.408-1.956-0.408c-0.701,0-1.311,0.149-1.827,0.447c-0.518,0.299-0.913,0.724-1.187,1.275
		c-0.275,0.552-0.412,1.193-0.412,1.927c0,1.171,0.285,2.075,0.854,2.711c0.57,0.635,1.378,0.953,2.426,0.953
		c0.725,0,1.332-0.092,1.825-0.277v-0.725c-0.636,0.178-1.202,0.268-1.698,0.268c-0.808,0-1.43-0.254-1.865-0.762
		c-0.438-0.508-0.655-1.227-0.655-2.158c0-0.905,0.226-1.618,0.679-2.139c0.452-0.521,1.07-0.781,1.852-0.781
		C91.939,150.15,92.477,150.277,93.016,150.53 M93.356,167.987c0.489-0.464,0.734-1.101,0.734-1.912v-4.603h-0.827v4.632
		c0,0.597-0.162,1.055-0.486,1.375c-0.324,0.319-0.786,0.479-1.388,0.479c-0.629,0-1.105-0.159-1.43-0.478
		c-0.325-0.318-0.487-0.774-0.487-1.367v-4.642h-0.826v4.583c0,0.817,0.233,1.46,0.702,1.927c0.47,0.467,1.132,0.701,1.988,0.701
		S92.866,168.451,93.356,167.987 M99.215,156.627h0.827v-7.114h-0.827v3.026h-3.747v-3.026h-0.827v7.114h0.827v-3.349h3.747V156.627
		z M100.497,168.586h0.944v-7.114h-0.773v4.082c-0.007,0.205,0.001,0.544,0.024,1.02c0.022,0.476,0.037,0.756,0.044,0.845h-0.039
		l-3.878-5.946h-0.935v7.114h0.764v-4.044c0-0.584-0.026-1.227-0.077-1.928h0.039L100.497,168.586z M101.994,156.627h3.965v-0.74
		h-3.138v-2.617h2.949v-0.73h-2.949v-2.292h3.138v-0.734h-3.965V156.627z M108.778,161.788c-0.655-0.278-1.362-0.419-2.122-0.419
		c-0.749,0-1.403,0.147-1.961,0.441c-0.559,0.293-0.985,0.718-1.282,1.275c-0.297,0.556-0.445,1.203-0.445,1.943
		c0,1.155,0.3,2.052,0.9,2.693c0.6,0.641,1.438,0.961,2.516,0.961c0.513,0,0.963-0.031,1.354-0.092
		c0.389-0.063,0.771-0.153,1.147-0.273v-3.46h-2.418v0.74h1.591v2.189c-0.471,0.113-0.951,0.171-1.444,0.171
		c-0.909,0-1.598-0.248-2.066-0.745c-0.469-0.496-0.703-1.225-0.703-2.185c0-0.915,0.243-1.63,0.73-2.146
		c0.486-0.517,1.163-0.774,2.029-0.774c0.594,0,1.212,0.136,1.854,0.409L108.778,161.788z M113.093,156.627v-7.114h-0.773v4.083
		c-0.006,0.204,0.002,0.544,0.024,1.019c0.022,0.476,0.037,0.757,0.043,0.845h-0.038l-3.879-5.946h-0.934v7.114h0.764v-4.044
		c0-0.585-0.025-1.227-0.078-1.928h0.039l3.889,5.972H113.093z"/>
</g>
</svg>
