<?xml version="1.0" encoding="utf-8"?>
<!-- Generator: Adobe Illustrator 16.0.0, SVG Export Plug-In . SVG Version: 6.00 Build 0)  -->
<!DOCTYPE svg PUBLIC "-//W3C//DTD SVG 1.1//EN" "http://www.w3.org/Graphics/SVG/1.1/DTD/svg11.dtd">
<svg version="1.1" id="Ebene_1" xmlns="http://www.w3.org/2000/svg" xmlns:xlink="http://www.w3.org/1999/xlink" x="0px" y="0px"
	 width="17px" height="16.813px" viewBox="0 0 17 16.813" enable-background="new 0 0 17 16.813" xml:space="preserve">
<path fill="#8DBE22" d="M12.107,9.073V7.74H4.893v1.333H12.107z M15.639,8.383c0,1.315-0.313,2.516-0.939,3.604
	c-0.626,1.088-1.482,1.945-2.57,2.57c-1.089,0.627-2.306,0.94-3.652,0.94c-1.33,0-2.541-0.313-3.627-0.94
	c-1.09-0.625-1.942-1.482-2.561-2.57c-0.617-1.089-0.927-2.289-0.927-3.604c0-1.314,0.31-2.512,0.927-3.593
	C2.907,3.71,3.76,2.861,4.85,2.243c1.086-0.618,2.297-0.929,3.627-0.929c1.347,0,2.563,0.311,3.652,0.929
	c1.088,0.618,1.944,1.467,2.57,2.547C15.325,5.871,15.639,7.068,15.639,8.383 M17,8.383c0-1.564-0.371-2.986-1.115-4.262
	S14.119,1.84,12.82,1.104C11.521,0.368,10.073,0,8.477,0c-1.582,0-3.021,0.368-4.32,1.104C2.855,1.84,1.84,2.846,1.104,4.121
	C0.368,5.396,0,6.818,0,8.383c0,1.566,0.368,2.99,1.104,4.274c0.736,1.282,1.752,2.297,3.053,3.04
	c1.299,0.743,2.738,1.115,4.32,1.115c1.597,0,3.045-0.372,4.344-1.115s2.32-1.758,3.064-3.04C16.629,11.373,17,9.949,17,8.383"/>
<rect y="0.001" fill="none" width="17" height="16.812"/>
</svg>
