<?xml version="1.0" encoding="utf-8"?>
<!-- Generator: Adobe Illustrator 16.0.0, SVG Export Plug-In . SVG Version: 6.00 Build 0)  -->
<!DOCTYPE svg PUBLIC "-//W3C//DTD SVG 1.1//EN" "http://www.w3.org/Graphics/SVG/1.1/DTD/svg11.dtd">
<svg version="1.1" id="Ebene_1" xmlns="http://www.w3.org/2000/svg" xmlns:xlink="http://www.w3.org/1999/xlink" x="0px" y="0px"
	 width="17px" height="16.812px" viewBox="0 0 17 16.812" enable-background="new 0 0 17 16.812" xml:space="preserve">
<g>
	<defs>
		<rect id="SVGID_1_" width="17" height="16.812"/>
	</defs>
	<clipPath id="SVGID_2_">
		<use xlink:href="#SVGID_1_"  overflow="visible"/>
	</clipPath>
	<path clip-path="url(#SVGID_2_)" fill="#8DBE22" d="M9.167,9.071h2.94V7.738h-2.94V4.799H7.833v2.939h-2.94v1.333h2.94v2.94h1.334
		V9.071z M15.639,8.382c0,1.314-0.313,2.516-0.939,3.604s-1.482,1.946-2.57,2.571c-1.089,0.627-2.306,0.94-3.652,0.94
		c-1.33,0-2.541-0.313-3.627-0.94c-1.09-0.625-1.942-1.483-2.561-2.571c-0.617-1.088-0.927-2.289-0.927-3.604
		c0-1.315,0.31-2.512,0.927-3.593c0.618-1.08,1.471-1.93,2.561-2.547c1.086-0.618,2.297-0.929,3.627-0.929
		c1.347,0,2.563,0.311,3.652,0.929c1.088,0.617,1.944,1.467,2.57,2.547C15.325,5.87,15.639,7.066,15.639,8.382 M17,8.382
		c0-1.565-0.371-2.986-1.115-4.262s-1.766-2.281-3.064-3.018c-1.299-0.735-2.747-1.104-4.344-1.104c-1.582,0-3.021,0.368-4.32,1.104
		C2.855,1.839,1.84,2.845,1.104,4.12C0.368,5.396,0,6.816,0,8.382s0.368,2.99,1.104,4.273c0.736,1.283,1.752,2.298,3.053,3.04
		c1.299,0.744,2.738,1.116,4.32,1.116c1.597,0,3.045-0.372,4.344-1.116c1.299-0.742,2.32-1.757,3.064-3.04S17,9.947,17,8.382"/>
</g>
</svg>
