<?xml version="1.0" encoding="utf-8"?>
<!-- Generator: Adobe Illustrator 16.0.0, SVG Export Plug-In . SVG Version: 6.00 Build 0)  -->
<!DOCTYPE svg PUBLIC "-//W3C//DTD SVG 1.1//EN" "http://www.w3.org/Graphics/SVG/1.1/DTD/svg11.dtd">
<svg version="1.1" id="Ebene_1" xmlns="http://www.w3.org/2000/svg" xmlns:xlink="http://www.w3.org/1999/xlink" x="0px" y="0px"
	 width="432.842px" height="239.553px" viewBox="0 0 432.842 239.553" enable-background="new 0 0 432.842 239.553"
	 xml:space="preserve">
<g>
	<defs>
		<rect id="SVGID_1_" width="432.842" height="239.553"/>
	</defs>
	<clipPath id="SVGID_2_">
		<use xlink:href="#SVGID_1_"  overflow="visible"/>
	</clipPath>
	<path clip-path="url(#SVGID_2_)" fill="#FFFFFF" d="M0,238.362c1.517-0.109,2.492-0.436,2.926-0.977
		c0.325-0.541,0.541-1.732,0.541-3.684v-14.627c0-1.301-0.108-2.166-0.541-2.6c-0.434-0.434-1.409-0.65-2.817-0.65v-0.758H7.26
		l8.342,18.309l8.018-18.309h7.151v0.758c-1.3,0.107-2.167,0.324-2.601,0.758c-0.325,0.326-0.541,1.191-0.541,2.492v16.035
		c0,1.301,0.216,2.166,0.541,2.492c0.434,0.434,1.301,0.65,2.601,0.76v0.648H20.695v-0.648c1.408-0.109,2.275-0.326,2.708-0.76
		c0.325-0.434,0.542-1.408,0.542-2.926v-16.252l-9.318,20.586h-0.433l-9.101-19.719v14.41c0,1.951,0.324,3.25,0.867,3.9
		c0.433,0.324,1.192,0.65,2.491,0.76v0.648H0V238.362z"/>
	<path clip-path="url(#SVGID_2_)" fill="#FFFFFF" d="M43.014,209.325c0.325-0.434,0.758-0.543,1.192-0.543
		c0.541,0,0.975,0.109,1.3,0.543c0.324,0.324,0.541,0.758,0.541,1.191c0,0.541-0.217,0.975-0.541,1.299
		c-0.325,0.326-0.759,0.543-1.3,0.543c-0.434,0-0.867-0.217-1.192-0.543c-0.326-0.324-0.542-0.758-0.542-1.299
		C42.472,210.083,42.688,209.649,43.014,209.325 M46.914,219.833l-4.117,9.859h4.117v1.518h-4.767
		c-0.975,2.385-1.517,3.791-1.733,4.334c-0.109,0.541-0.217,0.975-0.217,1.193c0,0.648,0.217,1.082,0.758,1.299
		c0.217,0.107,0.867,0.217,1.733,0.326v0.648h-7.15v-0.648c0.867-0.109,1.625-0.436,2.058-1.086
		c0.434-0.539,1.192-2.166,2.384-4.873l6.934-16.381V219.833z M52.765,211.815c-0.434,0.326-0.759,0.543-1.301,0.543
		c-0.541,0-0.975-0.217-1.299-0.543c-0.326-0.324-0.543-0.758-0.543-1.299c0-0.434,0.217-0.867,0.543-1.191
		c0.324-0.434,0.758-0.543,1.299-0.543c0.542,0,0.867,0.109,1.301,0.543c0.325,0.324,0.433,0.758,0.433,1.191
		C53.198,211.057,53.09,211.491,52.765,211.815 M51.031,229.692l-4.117-9.859v-3.811l0.542-1.281h0.758l8.993,20.479
		c0.542,1.299,1.083,2.166,1.408,2.49c0.326,0.326,0.975,0.543,1.842,0.652v0.648h-9.209v-0.648
		c1.083-0.109,1.733-0.219,2.059-0.326c0.324-0.109,0.433-0.432,0.433-0.977c0-0.215,0-0.541-0.109-0.975
		c-0.217-0.432-0.324-0.865-0.541-1.408l-1.517-3.467h-4.659v-1.518H51.031z"/>
	<path clip-path="url(#SVGID_2_)" fill="#FFFFFF" d="M64.683,238.362c1.517-0.109,2.492-0.436,2.925-0.977
		c0.434-0.541,0.65-1.732,0.65-3.684v-15.928l-0.542-0.541c-0.541-0.65-0.975-1.084-1.408-1.191
		c-0.325-0.109-0.867-0.217-1.625-0.217v-0.758h6.176l13.976,17.441v-12.133c0-1.951-0.325-3.25-0.867-3.793
		c-0.433-0.434-1.3-0.65-2.6-0.758v-0.758h8.451v0.758c-1.408,0.107-2.275,0.434-2.709,0.975c-0.541,0.543-0.758,1.734-0.758,3.576
		v19.068h-0.541l-16.036-19.826v14.084c0,1.951,0.325,3.25,0.867,3.9c0.434,0.324,1.192,0.65,2.492,0.76v0.648h-8.451V238.362z"/>
	<path clip-path="url(#SVGID_2_)" fill="#FFFFFF" d="M94.044,238.362c1.517-0.109,2.384-0.436,2.817-0.977
		c0.434-0.541,0.65-1.732,0.65-3.684v-15.928l-0.433-0.541c-0.542-0.65-0.975-1.084-1.409-1.191
		c-0.324-0.109-0.867-0.217-1.625-0.217v-0.758h6.176l13.869,17.441v-12.133c0-1.951-0.217-3.25-0.868-3.793
		c-0.324-0.434-1.191-0.65-2.6-0.758v-0.758h8.559v0.758c-1.408,0.107-2.275,0.434-2.817,0.975
		c-0.433,0.543-0.649,1.734-0.649,3.576v19.068h-0.651l-15.926-19.826v14.084c0,1.951,0.324,3.25,0.866,3.9
		c0.325,0.324,1.192,0.65,2.492,0.76v0.648h-8.451V238.362z"/>
	<path clip-path="url(#SVGID_2_)" fill="#FFFFFF" d="M123.406,238.362c1.3-0.109,2.167-0.326,2.492-0.76
		c0.433-0.326,0.65-1.191,0.65-2.492v-16.035c0-1.301-0.217-2.166-0.65-2.492c-0.325-0.434-1.192-0.65-2.492-0.758v-0.758h19.177
		l0.108,5.199h-0.975c-0.216-1.516-0.758-2.6-1.299-3.033c-0.651-0.541-2.059-0.758-4.118-0.758h-4.875
		c-0.543,0-0.867,0.107-0.975,0.324c-0.217,0.109-0.217,0.434-0.217,0.867v8.125h5.526c1.516,0,2.491-0.215,2.925-0.758
		c0.433-0.434,0.758-1.301,1.083-2.709h0.867v8.344h-0.867c-0.325-1.408-0.65-2.385-1.083-2.818
		c-0.434-0.434-1.409-0.648-2.925-0.648h-5.526v8.883c0,0.76,0.217,1.191,0.649,1.301c0.434,0.109,1.843,0.217,4.118,0.217
		c2.384,0,4.226-0.217,5.418-0.758c1.083-0.543,2.166-1.842,3.141-3.9h0.976l-1.626,6.066h-19.502V238.362z"/>
	<path clip-path="url(#SVGID_2_)" fill="#FFFFFF" d="M159.702,216.639c-0.613-0.109-1.294-0.164-2.059-0.164
		c-0.975,0-1.625,0.107-1.842,0.217c-0.216,0.217-0.324,0.541-0.324,1.082v8.885c1.752-0.072,3.161-0.197,4.225-0.434v4.557
		l-2.275-2.932l-1.95,0.109v7.15c0,1.301,0.216,2.166,0.541,2.492c0.434,0.434,1.301,0.65,2.709,0.76v0.648h-10.076v-0.648
		c1.408-0.109,2.275-0.436,2.6-0.76c0.325-0.434,0.541-1.408,0.541-2.926v-15.602c0-1.301-0.216-2.166-0.649-2.492
		c-0.325-0.434-1.192-0.65-2.492-0.758v-0.758h9.967c0.375,0,0.736,0.008,1.084,0.025V216.639z M161.002,225.792
		c1.95-0.758,2.925-2.166,2.925-4.441c0-2.059-0.866-3.467-2.6-4.225c-0.484-0.215-1.022-0.379-1.625-0.486v-1.547
		c1.67,0.09,3.041,0.393,4.117,0.84c2.708,0.977,4.009,2.818,4.009,5.525c0,1.734-0.541,3.143-1.733,4.119
		c-1.192,0.973-2.817,1.625-4.768,1.949l7.368,9.102c0.541,0.541,0.974,0.975,1.408,1.191c0.433,0.324,1.083,0.434,1.734,0.543
		v0.648h-5.742l-6.393-8.229v-4.557C160.216,226.11,160.649,225.967,161.002,225.792"/>
	<path clip-path="url(#SVGID_2_)" fill="#FFFFFF" d="M193.073,215.284c1.408,0.434,2.166,0.541,2.384,0.541
		c0.432,0,0.865-0.107,1.083-0.217c0.216-0.217,0.433-0.541,0.542-0.867h0.758l0.325,7.584h-0.867
		c-0.758-1.732-1.517-3.033-2.275-3.898c-1.409-1.518-3.25-2.277-5.525-2.277c-2.385,0-4.335,0.867-6.177,2.602
		c-1.734,1.734-2.599,4.658-2.599,8.666c0,3.359,0.865,5.959,2.599,7.803c1.842,1.842,4.009,2.816,6.502,2.816
		c0.433,0,0.974,0,1.516-0.107c0.649-0.109,1.192-0.219,1.734-0.434c0.866-0.219,1.408-0.434,1.624-0.65
		c0.217-0.219,0.326-0.541,0.326-0.977v-5.742c0-1.406-0.217-2.273-0.651-2.6c-0.325-0.324-1.192-0.543-2.599-0.65v-0.65h9.209v0.65
		c-0.867,0.107-1.409,0.217-1.734,0.434c-0.542,0.434-0.758,1.193-0.758,2.383v7.043c0,0.434-1.083,0.975-3.142,1.734
		c-2.059,0.65-4.009,1.084-5.959,1.084c-3.467,0-6.501-1.084-8.885-3.143c-2.708-2.275-4.009-5.309-4.009-9.102
		c0-3.359,1.083-6.283,3.142-8.668c2.384-2.6,5.418-3.9,9.318-3.9C190.363,214.741,191.773,214.85,193.073,215.284"/>
	<path clip-path="url(#SVGID_2_)" fill="#FFFFFF" d="M205.316,238.362c1.3-0.109,2.166-0.326,2.6-0.76
		c0.433-0.326,0.651-1.191,0.651-2.492v-16.035c0-1.301-0.218-2.166-0.651-2.492c-0.325-0.434-1.192-0.65-2.6-0.758v-0.758h19.176
		l0.108,5.199h-0.866c-0.326-1.516-0.76-2.6-1.408-3.033c-0.543-0.541-1.951-0.758-4.01-0.758h-4.983
		c-0.543,0-0.867,0.107-0.976,0.324c-0.109,0.109-0.109,0.434-0.109,0.867v8.125h5.527c1.517,0,2.491-0.215,2.923-0.758
		c0.435-0.434,0.76-1.301,0.977-2.709h0.867v8.344h-0.867c-0.217-1.408-0.542-2.385-0.977-2.818
		c-0.433-0.434-1.406-0.648-2.923-0.648h-5.527v8.883c0,0.76,0.218,1.191,0.651,1.301c0.434,0.109,1.841,0.217,4.009,0.217
		c2.492,0,4.333-0.217,5.417-0.758c1.191-0.543,2.274-1.842,3.142-3.9h1.084l-1.733,6.066h-19.502V238.362z"/>
	<path clip-path="url(#SVGID_2_)" fill="#FFFFFF" d="M232.618,231.75c0.542,1.625,1.301,2.926,2.059,3.902
		c1.517,1.625,3.25,2.49,5.419,2.49c1.082,0,2.165-0.324,2.924-1.084c0.866-0.758,1.301-1.732,1.301-3.031
		c0-1.191-0.435-2.168-1.301-3.143c-0.541-0.543-1.734-1.301-3.467-2.383l-3.035-1.953c-0.974-0.648-1.731-1.191-2.274-1.84
		c-0.974-1.084-1.517-2.385-1.517-3.684c0-1.842,0.543-3.359,1.842-4.551c1.191-1.301,2.816-1.844,4.767-1.844
		c0.867,0,1.843,0.219,2.926,0.543c1.192,0.434,1.841,0.65,2.06,0.65c0.433,0,0.758-0.107,0.867-0.326
		c0.215-0.215,0.324-0.539,0.434-0.867h0.758l0.758,7.693h-0.867c-0.541-2.383-1.517-4.008-2.816-4.875
		c-1.301-0.867-2.6-1.408-3.791-1.408c-1.085,0-1.951,0.326-2.602,0.867c-0.759,0.648-1.084,1.408-1.084,2.492
		c0,0.865,0.217,1.732,0.76,2.383c0.648,0.65,1.516,1.301,2.707,2.059l3.143,1.949c1.95,1.193,3.359,2.385,4.227,3.361
		c0.758,1.082,1.191,2.273,1.191,3.684c0,1.949-0.758,3.465-2.168,4.766c-1.406,1.301-3.25,1.842-5.525,1.842
		c-1.082,0-2.274-0.217-3.467-0.541c-1.191-0.436-1.949-0.65-2.058-0.65c-0.435,0-0.759,0.109-0.867,0.324
		c-0.216,0.326-0.216,0.543-0.325,0.867h-0.758l-1.085-7.693H232.618z"/>
	<path clip-path="url(#SVGID_2_)" fill="#FFFFFF" d="M264.364,215.065v0.76c-1.409,0.107-2.276,0.324-2.71,0.65
		c-0.434,0.434-0.648,1.191-0.648,2.6v11.484c0,1.949,0.215,3.359,0.758,4.443c0.976,1.949,2.816,2.926,5.524,2.926
		c2.927,0,4.876-0.977,5.959-3.035c0.543-1.084,0.759-2.816,0.759-5.092v-9.426c0-1.951-0.216-3.143-0.649-3.686
		c-0.433-0.432-1.408-0.758-2.708-0.865v-0.76h8.342v0.76c-1.409,0.107-2.275,0.434-2.708,0.975
		c-0.435,0.543-0.651,1.734-0.651,3.576v9.426c0,2.492-0.324,4.441-1.082,5.852c-1.408,2.6-4.119,3.9-8.127,3.9
		c-3.9,0-6.5-1.301-7.91-3.793c-0.758-1.408-1.191-3.252-1.191-5.418v-11.268c0-1.408-0.216-2.166-0.648-2.6
		c-0.326-0.326-1.192-0.543-2.602-0.65v-0.76H264.364z"/>
	<path clip-path="url(#SVGID_2_)" fill="#FFFFFF" d="M283.324,238.362c1.518-0.109,2.492-0.436,2.816-0.977
		c0.435-0.541,0.65-1.732,0.65-3.684v-15.928l-0.434-0.541c-0.541-0.65-0.975-1.084-1.408-1.191
		c-0.324-0.109-0.867-0.217-1.625-0.217v-0.758h6.175l13.978,17.441v-12.133c0-1.951-0.325-3.25-0.976-3.793
		c-0.324-0.434-1.19-0.65-2.492-0.758v-0.758h8.451v0.758c-1.409,0.107-2.273,0.434-2.708,0.975
		c-0.542,0.543-0.758,1.734-0.758,3.576v19.068h-0.651l-15.927-19.826v14.084c0,1.951,0.325,3.25,0.867,3.9
		c0.325,0.324,1.191,0.65,2.492,0.76v0.648h-8.451V238.362z"/>
	<path clip-path="url(#SVGID_2_)" fill="#FFFFFF" d="M320.054,237.385c0.324,0.217,0.975,0.324,1.842,0.324
		c1.662,0,3.134-0.189,4.442-0.588v1.68c-1.064,0.139-2.22,0.209-3.468,0.209h-10.076v-0.65c1.301-0.107,2.167-0.324,2.6-0.758
		c0.434-0.326,0.65-1.191,0.65-2.492v-16.035c0-1.408-0.217-2.166-0.65-2.6c-0.324-0.326-1.191-0.543-2.6-0.652v-0.758h9.75
		c1.343,0,2.607,0.092,3.794,0.277v1.764c-1.341-0.426-2.857-0.631-4.552-0.631c-0.866,0-1.408,0.107-1.732,0.217
		c-0.218,0.217-0.434,0.541-0.434,1.191v18.311C319.62,236.844,319.836,237.168,320.054,237.385 M326.338,237.122
		c0.907-0.279,1.736-0.656,2.491-1.145c2.817-1.734,4.226-4.66,4.226-8.775c0-3.686-1.192-6.502-3.467-8.344
		c-0.935-0.777-2.018-1.357-3.25-1.752v-1.764c1.688,0.264,3.214,0.713,4.551,1.35c4.115,1.949,6.175,5.418,6.175,10.4
		c0,1.842-0.433,3.576-1.192,5.201c-0.648,1.625-1.841,2.926-3.25,4.117c-0.975,0.65-1.949,1.191-2.925,1.625
		c-0.995,0.35-2.114,0.604-3.358,0.766V237.122z"/>
	<path clip-path="url(#SVGID_2_)" fill="#FFFFFF" d="M342.155,238.362c1.409-0.109,2.276-0.436,2.602-0.76
		c0.434-0.434,0.541-1.408,0.541-2.926v-15.602c0-1.301-0.217-2.166-0.541-2.6c-0.434-0.326-1.301-0.543-2.602-0.65v-0.758h10.077
		v0.758c-1.408,0.107-2.275,0.324-2.601,0.65c-0.433,0.434-0.65,1.299-0.65,2.6v7.043h10.944v-7.043c0-1.301-0.219-2.166-0.543-2.6
		c-0.434-0.326-1.301-0.543-2.6-0.65v-0.758h10.075v0.758c-1.408,0.107-2.275,0.324-2.6,0.65c-0.434,0.434-0.651,1.299-0.651,2.6
		v16.035c0,1.301,0.218,2.166,0.651,2.492c0.324,0.434,1.191,0.65,2.6,0.76v0.648h-10.075v-0.648c1.408-0.109,2.275-0.436,2.6-0.76
		c0.434-0.434,0.543-1.408,0.543-2.926v-7.041h-10.944v7.475c0,1.301,0.218,2.166,0.65,2.492c0.325,0.434,1.192,0.65,2.601,0.76
		v0.648h-10.077V238.362z"/>
	<path clip-path="url(#SVGID_2_)" fill="#FFFFFF" d="M371.301,238.362c1.3-0.109,2.168-0.326,2.601-0.76
		c0.433-0.326,0.541-1.191,0.541-2.492v-16.035c0-1.301-0.108-2.166-0.541-2.492c-0.433-0.434-1.191-0.65-2.601-0.758v-0.758h19.177
		l0.109,5.199h-0.867c-0.325-1.516-0.758-2.6-1.409-3.033c-0.541-0.541-1.95-0.758-4.116-0.758h-4.876
		c-0.542,0-0.867,0.107-0.976,0.324c-0.107,0.109-0.216,0.434-0.216,0.867v8.125h5.634c1.517,0,2.492-0.215,2.924-0.758
		c0.435-0.434,0.76-1.301,0.977-2.709h0.866v8.344h-0.866c-0.217-1.408-0.542-2.385-0.977-2.818
		c-0.432-0.434-1.407-0.648-2.924-0.648h-5.634v8.883c0,0.76,0.324,1.191,0.758,1.301s1.734,0.217,4.009,0.217
		c2.492,0,4.226-0.217,5.417-0.758c1.192-0.543,2.276-1.842,3.144-3.9h0.974l-1.625,6.066h-19.502V238.362z"/>
	<path clip-path="url(#SVGID_2_)" fill="#FFFFFF" d="M396.762,238.362c1.517-0.109,2.492-0.326,2.926-0.652
		c0.434-0.324,0.649-1.191,0.649-2.6v-16.035c0-1.408-0.216-2.275-0.649-2.6c-0.434-0.434-1.409-0.65-2.926-0.65v-0.758h10.726
		v0.758c-1.516,0-2.383,0.217-2.816,0.65c-0.434,0.324-0.65,1.191-0.65,2.6v16.035c0,1.408,0.217,2.275,0.65,2.6
		c0.434,0.326,1.301,0.543,2.816,0.652v0.648h-10.726V238.362z"/>
	<path clip-path="url(#SVGID_2_)" fill="#FFFFFF" d="M412.255,215.065h20.369l0.218,6.178h-0.867
		c-0.434-1.951-0.976-3.143-1.626-3.793c-0.648-0.541-2.058-0.867-4.116-0.867h-2.06v18.527c0,1.408,0.217,2.275,0.651,2.6
		c0.433,0.326,1.408,0.543,2.924,0.65v0.65h-10.617v-0.65c1.625-0.107,2.492-0.324,2.926-0.758c0.324-0.434,0.541-1.41,0.541-2.926
		v-18.094h-2.058c-1.951,0-3.359,0.326-4.009,0.867c-0.76,0.65-1.3,1.842-1.625,3.793h-0.867L412.255,215.065z"/>
	<path clip-path="url(#SVGID_2_)" fill="#FFFFFF" d="M120.264,189.604c0.541,1.625,1.3,2.928,2.167,3.9
		c1.408,1.625,3.142,2.492,5.308,2.492c1.192,0,2.167-0.324,3.034-1.082c0.758-0.758,1.192-1.734,1.192-3.035
		c0-1.191-0.434-2.166-1.192-3.033c-0.65-0.648-1.733-1.408-3.575-2.492l-3.034-1.949c-0.975-0.65-1.733-1.193-2.276-1.842
		c-0.975-1.084-1.516-2.385-1.516-3.684c0-1.842,0.65-3.361,1.842-4.551c1.192-1.299,2.817-1.842,4.767-1.842
		c0.867,0,1.842,0.217,3.034,0.648c1.083,0.326,1.841,0.543,1.95,0.543c0.434,0,0.758-0.109,0.975-0.326
		c0.108-0.217,0.217-0.541,0.325-0.865h0.759l0.758,7.691h-0.867c-0.541-2.383-1.516-3.898-2.817-4.875
		c-1.3-0.867-2.492-1.408-3.792-1.408c-0.975,0-1.841,0.324-2.6,0.975c-0.759,0.543-1.083,1.301-1.083,2.385
		c0,0.867,0.216,1.734,0.866,2.383c0.542,0.65,1.408,1.301,2.6,2.059l3.143,1.949c1.95,1.303,3.358,2.385,4.225,3.359
		c0.759,1.084,1.191,2.275,1.191,3.684c0,1.951-0.758,3.469-2.166,4.768c-1.409,1.301-3.25,1.951-5.417,1.951
		c-1.192,0-2.276-0.219-3.576-0.65c-1.192-0.434-1.842-0.65-2.058-0.65c-0.434,0-0.759,0.109-0.867,0.324
		c-0.108,0.326-0.217,0.543-0.325,0.867h-0.758l-1.084-7.693H120.264z"/>
	<path clip-path="url(#SVGID_2_)" fill="#FFFFFF" d="M141.933,173.028h20.477l0.108,6.068h-0.866
		c-0.434-1.951-0.975-3.145-1.625-3.686c-0.651-0.65-1.95-0.975-4.117-0.975h-1.95v18.529c0,1.406,0.216,2.273,0.649,2.598
		c0.434,0.326,1.409,0.543,2.817,0.652v0.648h-10.509v-0.648c1.516-0.109,2.491-0.326,2.925-0.76
		c0.325-0.324,0.542-1.301,0.542-2.926v-18.094h-2.059c-1.95,0-3.358,0.324-4.117,0.867c-0.65,0.648-1.192,1.842-1.625,3.793h-0.867
		L141.933,173.028z"/>
	<path clip-path="url(#SVGID_2_)" fill="#FFFFFF" d="M167.178,196.215c1.409-0.109,2.384-0.326,2.818-0.652
		c0.432-0.324,0.649-1.191,0.649-2.6v-16.035c0-1.408-0.217-2.168-0.649-2.6c-0.434-0.326-1.409-0.65-2.818-0.65v-0.65h10.618v0.65
		c-1.409,0-2.383,0.324-2.817,0.65c-0.434,0.432-0.649,1.191-0.649,2.6v16.035c0,1.408,0.215,2.275,0.649,2.6
		c0.434,0.326,1.408,0.543,2.817,0.652v0.648h-10.618V196.215z"/>
	<path clip-path="url(#SVGID_2_)" fill="#FFFFFF" d="M182.238,196.215c1.408-0.109,2.275-0.436,2.708-0.76
		c0.325-0.434,0.434-1.301,0.434-2.926v-15.602c0-1.301-0.109-2.168-0.542-2.492c-0.434-0.434-1.299-0.648-2.6-0.758v-0.65h19.285
		l0.108,5.094h-0.975c-0.325-1.627-0.759-2.709-1.408-3.143c-0.758-0.434-2.059-0.65-4.118-0.65h-4.874
		c-0.542,0-0.758,0.107-0.976,0.324c-0.109,0.107-0.216,0.434-0.216,0.975v8.018h5.308c1.516,0,2.492-0.215,2.926-0.648
		c0.433-0.543,0.758-1.41,0.974-2.818h0.867v8.344h-0.867c-0.216-1.41-0.541-2.275-0.974-2.816c-0.434-0.436-1.41-0.65-2.926-0.65
		h-5.308v7.908c0,1.299,0.216,2.166,0.65,2.6c0.433,0.326,1.3,0.543,2.708,0.652v0.648h-10.184V196.215z"/>
	<path clip-path="url(#SVGID_2_)" fill="#FFFFFF" d="M205.856,173.028h20.478l0.109,6.068h-0.867
		c-0.434-1.951-0.977-3.145-1.626-3.686c-0.649-0.65-1.95-0.975-4.116-0.975h-1.951v18.529c0,1.406,0.216,2.273,0.651,2.598
		c0.433,0.326,1.408,0.543,2.817,0.652v0.648h-10.51v-0.648c1.516-0.109,2.492-0.326,2.926-0.76c0.324-0.324,0.54-1.301,0.54-2.926
		v-18.094h-2.058c-1.951,0-3.358,0.324-4.117,0.867c-0.651,0.648-1.191,1.842-1.625,3.793h-0.867L205.856,173.028z"/>
	<path clip-path="url(#SVGID_2_)" fill="#FFFFFF" d="M241.178,173.028v0.65c-1.301,0.107-2.275,0.324-2.601,0.65
		c-0.435,0.432-0.649,1.191-0.649,2.6v11.484c0,1.951,0.215,3.359,0.758,4.443c0.976,1.949,2.817,2.926,5.525,2.926
		c2.926,0,4.876-0.977,5.959-2.926c0.542-1.193,0.758-2.818,0.758-5.201v-9.318c0-2.057-0.216-3.248-0.648-3.684
		c-0.542-0.541-1.41-0.867-2.708-0.975v-0.65h8.342v0.65c-1.409,0.107-2.274,0.434-2.708,0.975s-0.65,1.734-0.65,3.684v9.318
		c0,2.492-0.435,4.443-1.192,5.85c-1.408,2.602-4.009,3.902-8.019,3.902c-3.899,0-6.5-1.301-7.908-3.793
		c-0.758-1.408-1.192-3.143-1.192-5.418v-11.268c0-1.299-0.216-2.168-0.649-2.6c-0.324-0.326-1.191-0.543-2.601-0.65v-0.65H241.178z
		"/>
	<path clip-path="url(#SVGID_2_)" fill="#FFFFFF" d="M260.246,196.215c1.518-0.109,2.385-0.436,2.817-0.977
		c0.435-0.543,0.65-1.734,0.65-3.684v-15.928l-0.435-0.541c-0.541-0.65-0.974-0.975-1.408-1.191
		c-0.324-0.107-0.866-0.217-1.625-0.217v-0.65h6.176l13.869,17.334v-12.025c0-2.059-0.217-3.357-0.867-3.9
		c-0.324-0.434-1.191-0.648-2.602-0.758v-0.65h8.561v0.65c-1.409,0.109-2.273,0.434-2.816,0.975
		c-0.434,0.541-0.652,1.734-0.652,3.684v18.961h-0.648l-15.927-19.826v14.084c0,1.949,0.325,3.25,0.866,3.9
		c0.326,0.324,1.192,0.65,2.492,0.76v0.648h-8.451V196.215z"/>
	<path clip-path="url(#SVGID_2_)" fill="#FFFFFF" d="M306.618,173.135c1.408,0.434,2.167,0.543,2.384,0.543
		c0.542,0,0.867,0,1.084-0.217c0.216-0.217,0.434-0.541,0.541-0.867h0.76l0.324,7.586h-0.867c-0.758-1.734-1.516-3.035-2.274-3.902
		c-1.409-1.518-3.251-2.275-5.526-2.275s-4.334,0.867-6.176,2.602c-1.733,1.732-2.6,4.658-2.6,8.666c0,3.361,0.866,5.959,2.6,7.801
		c1.842,1.951,4.01,2.818,6.502,2.818c0.433,0,0.974,0,1.516-0.107c0.65-0.109,1.192-0.219,1.733-0.434
		c0.866-0.217,1.408-0.434,1.625-0.652c0.218-0.215,0.326-0.541,0.326-0.973v-5.744c0-1.408-0.218-2.273-0.65-2.6
		c-0.325-0.324-1.192-0.541-2.601-0.65v-0.648h9.209v0.648c-0.865,0.109-1.408,0.217-1.733,0.434
		c-0.542,0.434-0.758,1.191-0.758,2.383v7.045c0,0.432-1.083,1.082-3.143,1.73c-2.059,0.76-4.009,1.086-5.959,1.086
		c-3.468,0-6.501-1.086-8.885-3.143c-2.708-2.275-4.008-5.309-4.008-9.102c0-3.357,1.083-6.283,3.142-8.668
		c2.383-2.6,5.418-3.9,9.318-3.9C303.91,172.594,305.318,172.704,306.618,173.135"/>
	<path clip-path="url(#SVGID_2_)" fill="#FFFFFF" d="M232.943,3.034c0,0-0.759,3.358-0.217,5.309
		c0.325,1.517,2.385,3.25,1.625,3.684c-0.867,0.541-0.867,0.759-1.3,1.517c-0.649,1.191,0.325,2.816-0.974,3.468
		c-1.519,0.758-3.035-0.217-4.336,0.976c-1.408,1.19-1.408,4.009-1.299,4.441c0.108,0.542,0.324,0.866,0.324,0.866l2.493,0.434
		c0,0,3.683,1.409,4.874,3.359c0.977,1.517,1.191,4.55,1.191,4.55l2.276,4.009l2.708,3.034l8.018,7.584l8.019-4.009l3.575-3.251
		l-0.217-3.466l2.601-4.334l1.299-2.06c0,0,0.109-1.842,0.867-1.732c1.95,0.217,0.217,6.066,0.217,6.066l3.358-3.033
		c0,0,2.601-1.733,2.926-1.733c0.248,0,1.376-0.377,1.896-0.556c-10.054-13.065-24.494-22.569-41.116-26.346
		C232.281,2.288,232.943,3.034,232.943,3.034"/>
	<path clip-path="url(#SVGID_2_)" fill="#FFFFFF" d="M274.871,30.887l0.11,0.425l0.108,1.734l-1.949,2.167
		c0,0-1.844,2.925-2.276,3.25c-0.325,0.325-4.009,2.709-4.009,2.709l-3.792,1.732l-3.358,2.602l-3.684,3.899
		c0,0-6.176,6.501-7.693,6.284c-3.466-0.433-7.584-5.092-7.584-5.092l-5.85-4.767l-3.684-5.743l-3.035,15.386l-4.008,9.642
		l0.107,4.984l13.762,4.767l5.092,2.385l4.658,2.6l5.852,3.467l0.216,0.651l0.649,27.844l0.434,4.984l0.65,2.816l2.709,4.659
		l3.467,2.383l0.52,0.227c15.578-13.222,25.483-32.928,25.483-54.94C287.767,56.671,282.99,42.527,274.871,30.887"/>
	<path clip-path="url(#SVGID_2_)" fill="#FFFFFF" d="M154.609,107.587l2.276-1.191h3.575l2.6,0.217l1.192,0.975l0.975-0.217
		l2.925-1.3l4.227-2.709l3.357-1.625l2.059-0.216l3.576-0.217l2.058,0.217l1.626,0.433l1.299,0.217l12.351-17.769l3.793-4.334
		l-1.517-4.334l-0.217-5.2l0.651-1.842l1.841-3.033l1.301-1.626l1.408-1.517l0.542-1.083l0.758-1.95v-4.984l-0.649-2.275
		l-1.734-6.176l-0.976-3.468l-1.083-4.767V34.67l-3.9,0.326l-5.201,0.433l-7.693,1.626l-1.625,6.501l-2.166,8.233l0.107,2.167
		l1.518,3.033l2.817,3.359c0,0,2.166,3.251,0,2.6c-1.734-0.541-3.251-1.842-3.251-1.842l0.759,5.093l-0.434,2.167l-3.033,0.867
		l-2.276-0.759l-0.759-2.816l-1.083-2.493v-4.333l0.65-3.685l-0.107-2.601l-0.109-5.633l1.192-7.692l1.192-5.852l0.433-2.274
		l2.6-1.625l12.676-3.143l3.901-1.409l1.624-0.217l3.251-0.758h2.817l1.95-0.325l2.926-1.083l1.192-0.542l1.841-1.084l1.734-2.058
		l-0.109-3.792l-2.924-3.359c0,0-0.651-2.816-0.325-4.659c0.216-1.19,0.325-1.842,0.866-2.925c0.867-1.625,1.734-2.6,3.25-3.575
		c0.319-0.213,0.6-0.357,0.875-0.484C217.241,0.033,216.482,0,215.717,0c-39.763,0-71.942,32.18-71.942,71.941
		c0,13.951,3.973,26.974,10.834,38.013V107.587z"/>
	<path clip-path="url(#SVGID_2_)" fill="#FFFFFF" d="M250.604,133.59c0,0-0.867-0.109-1.301-0.217
		c-1.625-0.65-2.166-4.01-2.166-4.01l1.732-4.008l-0.324-4.66l-2.059-7.909l-2.166-4.767l-2.06-5.308l-0.108-5.094l0.217-2.384
		l0.867-1.732l0.325-2.276l-4.659-1.625l-6.392-1.733l-7.91-0.866l-6.934-1.842l-2.492-0.434l-2.166,5.417l-5.961,6.284
		l-5.199,4.767l-5.743,5.526l-3.141,3.358l-9.426,0.759l-8.451,1.191l-6.935,1.3l-4.009,0.541l-4.665,2.979
		c13.177,16.533,33.456,27.142,56.238,27.142c13.902,0,26.882-3.957,37.896-10.789L250.604,133.59z"/>
</g>
</svg>
