<?xml version="1.0" encoding="utf-8"?>
<!-- Generator: Adobe Illustrator 16.0.0, SVG Export Plug-In . SVG Version: 6.00 Build 0)  -->
<!DOCTYPE svg PUBLIC "-//W3C//DTD SVG 1.1//EN" "http://www.w3.org/Graphics/SVG/1.1/DTD/svg11.dtd">
<svg version="1.1" id="Ebene_1" xmlns="http://www.w3.org/2000/svg" xmlns:xlink="http://www.w3.org/1999/xlink" x="0px" y="0px"
	 width="585px" height="368.385px" viewBox="-207.406 -96.385 585 368.385" enable-background="new -207.406 -96.385 585 368.385"
	 xml:space="preserve">
<g>
	<line fill="none" stroke="#FFFFFF" stroke-width="2" x1="-207.406" y1="91.902" x2="-62.406" y2="91.902"/>
	<line fill="none" stroke="#FFFFFF" stroke-width="2" x1="232.594" y1="91.902" x2="377.594" y2="91.902"/>
	<path fill="#009DDF" d="M85.094,208c64.447,0,116.692-52.245,116.692-116.692c0-64.448-52.245-116.693-116.692-116.693
		S-31.598,26.86-31.598,91.308C-31.598,155.755,20.647,208,85.094,208"/>
	<rect x="-207.406" y="-96.385" fill="none" width="585" height="368.385"/>
	<g>
		<defs>
			<path id="SVGID_1_" d="M-31.598,91.308C-31.598,155.755,20.647,208,85.094,208s116.692-52.245,116.692-116.692
				c0-64.447-52.245-116.693-116.692-116.693S-31.598,26.861-31.598,91.308"/>
		</defs>
		<clipPath id="SVGID_2_">
			<use xlink:href="#SVGID_1_"  overflow="visible"/>
		</clipPath>
		<polygon clip-path="url(#SVGID_2_)" fill="#0088C0" points="226.585,255.963 286.552,119.628 126.85,32.229 44.79,32.229 
			44.79,66.425 59.76,74.71 15.252,74.406 15.252,108.672 41.726,124.307 35.773,150.85 		"/>
	</g>
	<rect x="44.791" y="32.228" fill="#FFFFFF" width="82.06" height="34.267"/>
	<rect x="15.253" y="74.405" fill="#FFFFFF" width="141.136" height="34.267"/>
	<rect x="35.772" y="116.582" fill="#FFFFFF" width="100.096" height="34.268"/>
	<path fill="#0088C0" d="M120.332,124.944h7.465v-2.436h-17.671v2.436h7.465v21.137h2.741V124.944z M98.774,136.003h9.771v-2.435
		h-9.771v-8.625h10.4v-2.436H96.034v23.572h2.74V136.003z M92.036,146.08v-2.482H81.636v-21.09h-2.741v23.572H92.036z
		 M72.429,122.508h-2.741v23.572h2.741V122.508z M63.223,122.508h-2.741v10.029H48.067v-10.029h-2.74v23.572h2.74v-11.094h12.415
		v11.094h2.741V122.508z"/>
	<g>
		<defs>
			<rect id="SVGID_3_" x="-207.406" y="-96.385" width="585" height="368.385"/>
		</defs>
		<clipPath id="SVGID_4_">
			<use xlink:href="#SVGID_3_"  overflow="visible"/>
		</clipPath>
		<path clip-path="url(#SVGID_4_)" fill="#0088C0" d="M146.655,99.75h-8.578v-6.078h7.981v-4.095h-7.981v-5.176h8.578v-4.095
			h-13.576v23.572h13.576V99.75z M115.814,99.75h-2.146V84.401h2.66c4.472,0,6.708,2.531,6.708,7.594
			C123.037,97.165,120.629,99.75,115.814,99.75 M125.036,83.353c-2.128-2.031-5.117-3.047-8.964-3.047h-7.401v23.572h6.676
			c4.17,0,7.359-1.032,9.568-3.096s3.313-5.036,3.313-8.916C128.228,88.222,127.164,85.385,125.036,83.353 M102.772,80.306h-4.498
			v11.157c0,1.268,0.081,3.434,0.242,6.498h-0.113L88.165,80.306h-6.304v23.572h4.466V92.785c0-1.343-0.103-3.59-0.307-6.739h0.146
			l10.254,17.832h6.353V80.306z M76.978,99.75H68.4v-6.078h7.98v-4.095H68.4v-5.176h8.578v-4.095H63.402v23.572h13.576V99.75z
			 M56.754,82.153c-1.488-1.231-3.663-1.846-6.521-1.846h-7.53v23.572h4.999v-8.384h2.144c2.924,0,5.179-0.672,6.765-2.016
			c1.585-1.343,2.378-3.283,2.378-5.82C58.987,85.219,58.242,83.384,56.754,82.153 M47.701,84.401h2.273
			c1.364,0,2.366,0.28,3.007,0.838c0.639,0.559,0.959,1.425,0.959,2.596c0,1.161-0.381,2.045-1.146,2.652
			c-0.763,0.608-1.913,0.911-3.45,0.911h-1.644V84.401z M37.239,93.438c-0.817-1.059-2.327-2.115-4.531-3.168
			c-1.666-0.796-2.722-1.346-3.168-1.653c-0.446-0.306-0.771-0.623-0.975-0.951c-0.205-0.328-0.308-0.712-0.308-1.153
			c0-0.709,0.253-1.284,0.759-1.725c0.505-0.441,1.23-0.661,2.177-0.661c0.795,0,1.604,0.102,2.426,0.306
			c0.823,0.205,1.863,0.565,3.12,1.081l1.613-3.886c-1.215-0.527-2.379-0.935-3.491-1.225c-1.113-0.291-2.282-0.436-3.507-0.436
			c-2.494,0-4.447,0.597-5.861,1.79c-1.413,1.193-2.12,2.832-2.12,4.917c0,1.108,0.215,2.075,0.646,2.903
			c0.43,0.827,1.005,1.553,1.725,2.176c0.72,0.624,1.801,1.274,3.241,1.951c1.537,0.731,2.556,1.263,3.055,1.596
			c0.5,0.334,0.879,0.68,1.137,1.04c0.259,0.36,0.388,0.772,0.388,1.234c0,0.827-0.293,1.451-0.879,1.87
			c-0.586,0.419-1.428,0.629-2.523,0.629c-0.914,0-1.921-0.145-3.022-0.436c-1.103-0.29-2.448-0.79-4.039-1.499v4.643
			c1.935,0.946,4.159,1.419,6.675,1.419c2.729,0,4.86-0.613,6.393-1.838c1.532-1.225,2.297-2.902,2.297-5.03
			C38.464,95.795,38.056,94.497,37.239,93.438"/>
		<path clip-path="url(#SVGID_4_)" fill="#0088C0" d="M119.284,59.225h-10.399v-8.674h9.77v-2.419h-9.77v-7.594h10.399v-2.434
			h-13.141v23.572h13.141V59.225z M88.472,40.506h3.563c2.03,0,3.507,0.344,4.426,1.032s1.378,1.811,1.378,3.37
			c0,1.537-0.451,2.69-1.354,3.458c-0.902,0.769-2.321,1.153-4.257,1.153h-3.756V40.506z M93.389,51.873l5.708,9.803h3.241
			l-6.401-10.593c3.16-1.096,4.74-3.203,4.74-6.32c0-2.225-0.691-3.891-2.072-4.999c-1.381-1.106-3.517-1.66-6.409-1.66h-6.465
			v23.572h2.741v-9.803H93.389z M79.266,38.104h-2.741v10.028H64.11V38.104h-2.74v23.572h2.74V50.583h12.415v11.093h2.741V38.104z
			 M54.904,38.104h-2.74v23.572h2.74V38.104z"/>
		<path clip-path="url(#SVGID_4_)" fill="none" stroke="#FFFFFF" stroke-width="1.804" d="M85.094,208
			c64.344,0,116.692-52.348,116.692-116.692c0-64.345-52.349-116.692-116.692-116.692S-31.598,26.963-31.598,91.308
			C-31.598,155.653,20.751,208,85.094,208z"/>
	</g>
	<rect x="-207.406" y="-96.385" fill="none" width="585" height="368.385"/>
</g>
</svg>
