<?xml version="1.0" encoding="utf-8"?>
<!-- Generator: Adobe Illustrator 16.0.0, SVG Export Plug-In . SVG Version: 6.00 Build 0)  -->
<!DOCTYPE svg PUBLIC "-//W3C//DTD SVG 1.1//EN" "http://www.w3.org/Graphics/SVG/1.1/DTD/svg11.dtd">
<svg version="1.1" id="Ebene_1" xmlns="http://www.w3.org/2000/svg" xmlns:xlink="http://www.w3.org/1999/xlink" x="0px" y="0px"
	 width="56.998px" height="57px" viewBox="0 0 56.998 57" enable-background="new 0 0 56.998 57" xml:space="preserve">
<path fill="#009FE1" d="M28.055,16.287h0.888l19.912,13.422v7.697L28.5,29.01L8.143,37.407v-7.698L28.055,16.287z M39.599,54.773
	c3.457-1.481,6.479-3.521,9.064-6.108c2.587-2.585,4.621-5.604,6.107-9.063c1.483-3.455,2.227-7.156,2.227-11.101
	c0-3.945-0.742-7.645-2.227-11.101c-1.486-3.457-3.521-6.478-6.107-9.066c-2.587-2.586-5.607-4.621-9.064-6.106S32.442,0,28.5,0
	c-3.949,0-7.647,0.743-11.103,2.228c-3.457,1.485-6.479,3.52-9.063,6.106c-2.589,2.588-4.623,5.61-6.109,9.066
	C0.738,20.856,0,24.557,0,28.501c0,3.944,0.738,7.646,2.225,11.101c1.486,3.459,3.52,6.479,6.109,9.063
	c2.585,2.589,5.607,4.627,9.063,6.108C20.853,56.259,24.551,57,28.5,57C32.442,57,36.142,56.259,39.599,54.773"/>
</svg>
